<svg width="722" height="33" viewBox="0 0 722 33" fill="none" xmlns="http://www.w3.org/2000/svg">
<path d="M0 6C0 2.68629 2.68629 0 6 0H147V12H6C2.68629 12 0 9.31371 0 6Z" fill="#C5D6B6"/>
<rect x="147" width="144" height="12" fill="#81C2A7"/>
<rect x="431" width="144" height="12" fill="#326284"/>
<rect x="291" width="147" height="12" fill="#4CB2AC"/>
<path d="M575 0H716C719.314 0 722 2.68629 722 6C722 9.31371 719.314 12 716 12H575V0Z" fill="#162C3B"/>
<path d="M3.95801 31.1572C2.04395 31.1572 0.833984 29.7695 0.833984 27.582C0.833984 23.7881 2.71387 20.9785 5.24316 20.9785C7.15039 20.9785 8.36035 22.373 8.36035 24.5674C8.36035 28.3818 6.50098 31.1572 3.95801 31.1572ZM1.79785 27.5684C1.79785 29.2568 2.65234 30.3301 3.99219 30.3301C5.89258 30.3301 7.38965 27.7939 7.38965 24.5742C7.38965 22.8926 6.54199 21.8125 5.21582 21.8125C3.31543 21.8125 1.79785 24.3691 1.79785 27.5684Z" fill="black"/>
<path d="M131.958 31.1572C130.071 31.1572 128.663 29.9746 128.649 28.3613V28.334H129.572V28.3477C129.634 29.4893 130.652 30.3096 131.992 30.3096C133.523 30.3096 134.624 29.1748 134.624 27.6094C134.624 26.2764 133.722 25.3809 132.396 25.3809C131.555 25.3809 130.611 25.7568 130.119 26.4541C130.119 26.4541 129.23 26.4541 129.135 26.4541L130.789 21.1357H136.203L136.019 21.9766H131.411L130.317 25.4971H130.345C130.844 24.9365 131.732 24.5811 132.614 24.5811C134.31 24.5811 135.567 25.7158 135.567 27.5684C135.567 29.6191 134.057 31.1572 131.958 31.1572ZM136.634 32.8867H135.868L137.228 29.5918H138.185L136.634 32.8867ZM142.69 31.1572C140.776 31.1572 139.566 29.7695 139.566 27.582C139.566 23.7881 141.446 20.9785 143.975 20.9785C145.882 20.9785 147.092 22.373 147.092 24.5674C147.092 28.3818 145.233 31.1572 142.69 31.1572ZM140.53 27.5684C140.53 29.2568 141.384 30.3301 142.724 30.3301C144.624 30.3301 146.122 27.7939 146.122 24.5742C146.122 22.8926 145.274 21.8125 143.948 21.8125C142.047 21.8125 140.53 24.3691 140.53 27.5684ZM151.583 31.1572C149.669 31.1572 148.459 29.7695 148.459 27.582C148.459 23.7881 150.339 20.9785 152.868 20.9785C154.776 20.9785 155.986 22.373 155.986 24.5674C155.986 28.3818 154.126 31.1572 151.583 31.1572ZM149.423 27.5684C149.423 29.2568 150.278 30.3301 151.617 30.3301C153.518 30.3301 155.015 27.7939 155.015 24.5742C155.015 22.8926 154.167 21.8125 152.841 21.8125C150.941 21.8125 149.423 24.3691 149.423 27.5684ZM160.476 31.1572C158.562 31.1572 157.352 29.7695 157.352 27.582C157.352 23.7881 159.232 20.9785 161.762 20.9785C163.669 20.9785 164.879 22.373 164.879 24.5674C164.879 28.3818 163.019 31.1572 160.476 31.1572ZM158.316 27.5684C158.316 29.2568 159.171 30.3301 160.511 30.3301C162.411 30.3301 163.908 27.7939 163.908 24.5742C163.908 22.8926 163.06 21.8125 161.734 21.8125C159.834 21.8125 158.316 24.3691 158.316 27.5684Z" fill="black"/>
<path d="M271.543 31L273.409 22.2363H273.382C273.088 22.3867 270.729 23.8428 270.374 24.0479L270.6 22.9609C270.846 22.8174 273.204 21.3682 273.648 21.1357H274.578L272.479 31H271.543ZM279.172 31.1572C277.258 31.1572 276.048 29.7695 276.048 27.582C276.048 23.7881 277.927 20.9785 280.457 20.9785C282.364 20.9785 283.574 22.373 283.574 24.5674C283.574 28.3818 281.715 31.1572 279.172 31.1572ZM277.011 27.5684C277.011 29.2568 277.866 30.3301 279.206 30.3301C281.106 30.3301 282.603 27.7939 282.603 24.5742C282.603 22.8926 281.756 21.8125 280.429 21.8125C278.529 21.8125 277.011 24.3691 277.011 27.5684ZM284.148 32.8867H283.382L284.743 29.5918H285.7L284.148 32.8867ZM290.204 31.1572C288.29 31.1572 287.08 29.7695 287.08 27.582C287.08 23.7881 288.96 20.9785 291.489 20.9785C293.397 20.9785 294.607 22.373 294.607 24.5674C294.607 28.3818 292.747 31.1572 290.204 31.1572ZM288.044 27.5684C288.044 29.2568 288.899 30.3301 290.238 30.3301C292.139 30.3301 293.636 27.7939 293.636 24.5742C293.636 22.8926 292.788 21.8125 291.462 21.8125C289.562 21.8125 288.044 24.3691 288.044 27.5684ZM299.098 31.1572C297.183 31.1572 295.974 29.7695 295.974 27.582C295.974 23.7881 297.853 20.9785 300.383 20.9785C302.29 20.9785 303.5 22.373 303.5 24.5674C303.5 28.3818 301.641 31.1572 299.098 31.1572ZM296.937 27.5684C296.937 29.2568 297.792 30.3301 299.132 30.3301C301.032 30.3301 302.529 27.7939 302.529 24.5742C302.529 22.8926 301.682 21.8125 300.355 21.8125C298.455 21.8125 296.937 24.3691 296.937 27.5684ZM307.991 31.1572C306.077 31.1572 304.867 29.7695 304.867 27.582C304.867 23.7881 306.747 20.9785 309.276 20.9785C311.183 20.9785 312.393 22.373 312.393 24.5674C312.393 28.3818 310.534 31.1572 307.991 31.1572ZM305.831 27.5684C305.831 29.2568 306.685 30.3301 308.025 30.3301C309.925 30.3301 311.422 27.7939 311.422 24.5742C311.422 22.8926 310.575 21.8125 309.249 21.8125C307.348 21.8125 305.831 24.3691 305.831 27.5684Z" fill="black"/>
<path d="M418.543 31L420.409 22.2363H420.382C420.088 22.3867 417.729 23.8428 417.374 24.0479L417.6 22.9609C417.846 22.8174 420.204 21.3682 420.648 21.1357H421.578L419.479 31H418.543ZM426.131 31.1572C424.244 31.1572 422.836 29.9746 422.822 28.3613V28.334H423.745V28.3477C423.806 29.4893 424.825 30.3096 426.165 30.3096C427.696 30.3096 428.797 29.1748 428.797 27.6094C428.797 26.2764 427.894 25.3809 426.568 25.3809C425.727 25.3809 424.784 25.7568 424.292 26.4541C424.292 26.4541 423.403 26.4541 423.307 26.4541L424.962 21.1357H430.376L430.191 21.9766H425.584L424.49 25.4971H424.517C425.016 24.9365 425.905 24.5811 426.787 24.5811C428.482 24.5811 429.74 25.7158 429.74 27.5684C429.74 29.6191 428.229 31.1572 426.131 31.1572ZM430.806 32.8867H430.04L431.401 29.5918H432.358L430.806 32.8867ZM436.862 31.1572C434.948 31.1572 433.738 29.7695 433.738 27.582C433.738 23.7881 435.618 20.9785 438.148 20.9785C440.055 20.9785 441.265 22.373 441.265 24.5674C441.265 28.3818 439.405 31.1572 436.862 31.1572ZM434.702 27.5684C434.702 29.2568 435.557 30.3301 436.897 30.3301C438.797 30.3301 440.294 27.7939 440.294 24.5742C440.294 22.8926 439.446 21.8125 438.12 21.8125C436.22 21.8125 434.702 24.3691 434.702 27.5684ZM445.756 31.1572C443.842 31.1572 442.632 29.7695 442.632 27.582C442.632 23.7881 444.512 20.9785 447.041 20.9785C448.948 20.9785 450.158 22.373 450.158 24.5674C450.158 28.3818 448.299 31.1572 445.756 31.1572ZM443.596 27.5684C443.596 29.2568 444.45 30.3301 445.79 30.3301C447.69 30.3301 449.187 27.7939 449.187 24.5742C449.187 22.8926 448.34 21.8125 447.014 21.8125C445.113 21.8125 443.596 24.3691 443.596 27.5684ZM454.649 31.1572C452.735 31.1572 451.525 29.7695 451.525 27.582C451.525 23.7881 453.405 20.9785 455.934 20.9785C457.841 20.9785 459.051 22.373 459.051 24.5674C459.051 28.3818 457.192 31.1572 454.649 31.1572ZM452.489 27.5684C452.489 29.2568 453.343 30.3301 454.683 30.3301C456.584 30.3301 458.081 27.7939 458.081 24.5742C458.081 22.8926 457.233 21.8125 455.907 21.8125C454.006 21.8125 452.489 24.3691 452.489 27.5684Z" fill="black"/>
<path d="M553.6 23.7881C553.825 22.1133 555.179 20.9785 556.942 20.9785C558.583 20.9785 559.813 22.0312 559.813 23.4395C559.813 24.6904 559.232 25.4697 556.977 27.3564L553.675 30.125L553.668 30.1523H558.87L558.692 31H552.178L552.328 30.248L556.484 26.7344C558.378 25.1279 558.87 24.4717 558.87 23.5352C558.87 22.5234 558.043 21.7988 556.895 21.7988C555.685 21.7988 554.748 22.585 554.529 23.7881H553.6ZM564.263 31.1572C562.349 31.1572 561.139 29.7695 561.139 27.582C561.139 23.7881 563.019 20.9785 565.549 20.9785C567.456 20.9785 568.666 22.373 568.666 24.5674C568.666 28.3818 566.806 31.1572 564.263 31.1572ZM562.103 27.5684C562.103 29.2568 562.958 30.3301 564.298 30.3301C566.198 30.3301 567.695 27.7939 567.695 24.5742C567.695 22.8926 566.847 21.8125 565.521 21.8125C563.621 21.8125 562.103 24.3691 562.103 27.5684ZM569.24 32.8867H568.474L569.834 29.5918H570.791L569.24 32.8867ZM575.296 31.1572C573.382 31.1572 572.172 29.7695 572.172 27.582C572.172 23.7881 574.052 20.9785 576.581 20.9785C578.488 20.9785 579.698 22.373 579.698 24.5674C579.698 28.3818 577.839 31.1572 575.296 31.1572ZM573.136 27.5684C573.136 29.2568 573.99 30.3301 575.33 30.3301C577.231 30.3301 578.728 27.7939 578.728 24.5742C578.728 22.8926 577.88 21.8125 576.554 21.8125C574.653 21.8125 573.136 24.3691 573.136 27.5684ZM584.189 31.1572C582.275 31.1572 581.065 29.7695 581.065 27.582C581.065 23.7881 582.945 20.9785 585.474 20.9785C587.382 20.9785 588.592 22.373 588.592 24.5674C588.592 28.3818 586.732 31.1572 584.189 31.1572ZM582.029 27.5684C582.029 29.2568 582.884 30.3301 584.224 30.3301C586.124 30.3301 587.621 27.7939 587.621 24.5742C587.621 22.8926 586.773 21.8125 585.447 21.8125C583.547 21.8125 582.029 24.3691 582.029 27.5684ZM593.083 31.1572C591.169 31.1572 589.959 29.7695 589.959 27.582C589.959 23.7881 591.838 20.9785 594.368 20.9785C596.275 20.9785 597.485 22.373 597.485 24.5674C597.485 28.3818 595.626 31.1572 593.083 31.1572ZM590.922 27.5684C590.922 29.2568 591.777 30.3301 593.117 30.3301C595.017 30.3301 596.514 27.7939 596.514 24.5742C596.514 22.8926 595.667 21.8125 594.34 21.8125C592.44 21.8125 590.922 24.3691 590.922 27.5684Z" fill="black"/>
<path d="M677.6 23.7881C677.825 22.1133 679.179 20.9785 680.942 20.9785C682.583 20.9785 683.813 22.0312 683.813 23.4395C683.813 24.6904 683.232 25.4697 680.977 27.3564L677.675 30.125L677.668 30.1523H682.87L682.692 31H676.178L676.328 30.248L680.484 26.7344C682.378 25.1279 682.87 24.4717 682.87 23.5352C682.87 22.5234 682.043 21.7988 680.895 21.7988C679.685 21.7988 678.748 22.585 678.529 23.7881H677.6ZM688.304 31.1572C686.418 31.1572 685.009 29.9746 684.996 28.3613V28.334H685.919V28.3477C685.98 29.4893 686.999 30.3096 688.339 30.3096C689.87 30.3096 690.97 29.1748 690.97 27.6094C690.97 26.2764 690.068 25.3809 688.742 25.3809C687.901 25.3809 686.958 25.7568 686.466 26.4541C686.466 26.4541 685.577 26.4541 685.481 26.4541L687.135 21.1357H692.55L692.365 21.9766H687.758L686.664 25.4971H686.691C687.19 24.9365 688.079 24.5811 688.961 24.5811C690.656 24.5811 691.914 25.7158 691.914 27.5684C691.914 29.6191 690.403 31.1572 688.304 31.1572ZM692.98 32.8867H692.214L693.575 29.5918H694.532L692.98 32.8867ZM699.036 31.1572C697.122 31.1572 695.912 29.7695 695.912 27.582C695.912 23.7881 697.792 20.9785 700.321 20.9785C702.229 20.9785 703.439 22.373 703.439 24.5674C703.439 28.3818 701.579 31.1572 699.036 31.1572ZM696.876 27.5684C696.876 29.2568 697.731 30.3301 699.07 30.3301C700.971 30.3301 702.468 27.7939 702.468 24.5742C702.468 22.8926 701.62 21.8125 700.294 21.8125C698.394 21.8125 696.876 24.3691 696.876 27.5684ZM707.93 31.1572C706.016 31.1572 704.806 29.7695 704.806 27.582C704.806 23.7881 706.685 20.9785 709.215 20.9785C711.122 20.9785 712.332 22.373 712.332 24.5674C712.332 28.3818 710.473 31.1572 707.93 31.1572ZM705.769 27.5684C705.769 29.2568 706.624 30.3301 707.964 30.3301C709.864 30.3301 711.361 27.7939 711.361 24.5742C711.361 22.8926 710.514 21.8125 709.187 21.8125C707.287 21.8125 705.769 24.3691 705.769 27.5684ZM716.823 31.1572C714.909 31.1572 713.699 29.7695 713.699 27.582C713.699 23.7881 715.579 20.9785 718.108 20.9785C720.015 20.9785 721.225 22.373 721.225 24.5674C721.225 28.3818 719.366 31.1572 716.823 31.1572ZM714.663 27.5684C714.663 29.2568 715.517 30.3301 716.857 30.3301C718.757 30.3301 720.254 27.7939 720.254 24.5742C720.254 22.8926 719.407 21.8125 718.081 21.8125C716.18 21.8125 714.663 24.3691 714.663 27.5684Z" fill="black"/>
</svg>
