<svg width="17" height="17" viewBox="0 0 17 17" fill="none" xmlns="http://www.w3.org/2000/svg">
<path fill-rule="evenodd" clip-rule="evenodd" d="M11.3788 1.16258C11.3322 1.08056 11.2698 1.00858 11.1952 0.950779C11.1207 0.892975 11.0354 0.850491 10.9444 0.825772C10.8533 0.801054 10.7583 0.794588 10.6647 0.806749C10.5712 0.818909 10.4809 0.849455 10.3992 0.896628C10.3175 0.9438 10.246 1.00667 10.1887 1.08161C10.1314 1.15656 10.0894 1.24209 10.0653 1.3333C10.0412 1.42451 10.0354 1.51959 10.0482 1.61307C10.0609 1.70654 10.0921 1.79656 10.1398 1.87795L10.1655 1.92374L0.990157 11.7387C0.885196 11.8507 0.819069 11.9936 0.801549 12.1461C0.784029 12.2986 0.816045 12.4527 0.892866 12.5857L1.76419 14.0951C1.84087 14.2279 1.95818 14.3325 2.09883 14.3936C2.23948 14.4546 2.39602 14.4689 2.54538 14.4342L4.9891 13.8662L5.47269 14.7046L5.47412 14.7075C5.80943 15.2869 6.34469 15.724 6.97943 15.9368C7.61418 16.1496 8.30475 16.1234 8.92154 15.8631C9.53833 15.6028 10.0389 15.1264 10.3293 14.5232C10.6198 13.92 10.6801 13.2316 10.4989 12.5871L15.6353 11.3939L15.6596 11.4368C15.7062 11.5188 15.7686 11.5908 15.8432 11.6486C15.9178 11.7064 16.003 11.7489 16.0941 11.7736C16.1851 11.7983 16.2802 11.8048 16.3737 11.7926C16.4673 11.7804 16.5575 11.7499 16.6392 11.7027C16.7209 11.6556 16.7925 11.5927 16.8498 11.5177C16.9071 11.4428 16.949 11.3573 16.9731 11.2661C16.9972 11.1748 17.0031 11.0798 16.9903 10.9863C16.9775 10.8928 16.9464 10.8028 16.8986 10.7214L16.6297 10.255C16.6176 10.2309 16.6043 10.2075 16.5896 10.1849L11.6907 1.70054C11.6786 1.67741 11.6652 1.65496 11.6507 1.63329L11.3788 1.16258ZM9.10107 12.9119L6.4456 13.5271L6.71029 13.9878C6.87378 14.2701 7.13619 14.4817 7.44673 14.5817C7.75727 14.6817 8.09386 14.6629 8.39136 14.5291C8.68885 14.3952 8.92611 14.1557 9.05722 13.857C9.18832 13.5582 9.20394 13.2215 9.10107 12.9119Z" fill="#808080"/>
<circle cx="13.1358" cy="6.70222" r="2.10847" fill="#808080"/>
</svg>
