<svg width="25" height="24" viewBox="0 0 25 24" fill="none" xmlns="http://www.w3.org/2000/svg">
<rect x="0.03125" width="24" height="24" rx="4" fill="black"/>
<path d="M8.25167 15.8493C9.3295 15.8493 10.2533 14.9639 10.2533 13.8476C10.2533 12.7698 9.36799 11.8459 8.25167 11.8459C7.17385 11.8459 6.25 12.7313 6.25 13.8476C6.28849 14.9639 7.17385 15.8493 8.25167 15.8493Z" fill="white"/>
<path d="M9.75418 16.2343L9.6772 16.1958L9.6387 16.2343C8.79184 16.7347 7.71402 16.7347 6.86716 16.2343L6.82866 16.1958L6.75167 16.2343C5.51987 16.6962 4.75 17.851 4.75 19.1598V19.6217C4.75 19.8527 4.94247 20.0452 5.17343 20.0452H11.3324V19.1598C11.3324 18.7749 11.4094 18.3899 11.5249 18.005V17.9665V17.928C11.1785 17.1581 10.5626 16.5422 9.75418 16.2343Z" fill="white"/>
<path d="M11.7517 8.72796C12.8295 8.72796 13.7533 7.8426 13.7533 6.72628C13.7533 5.64846 12.868 4.72461 11.7517 4.72461C10.6738 4.72461 9.75 5.60997 9.75 6.72628C9.75 7.8426 10.6354 8.72796 11.7517 8.72796Z" fill="white"/>
<path d="M13.4104 15.7337L13.5644 15.6567L13.4489 15.5412C13.064 15.0408 12.8715 14.4634 12.8715 13.886C12.8715 12.6157 13.7184 11.4994 14.9502 11.1915L15.1042 11.153L15.0657 10.999C14.7577 10.1521 14.1033 9.49773 13.2565 9.15129L13.1795 9.11279L13.141 9.15129C12.2941 9.65171 11.2163 9.61321 10.3694 9.15129L10.3309 9.11279L10.2539 9.15129C9.44558 9.45924 8.79119 10.1136 8.48324 10.922L8.40625 11.076L8.59872 11.1145C10.023 11.2684 11.0623 12.4617 11.0623 13.886C11.0623 14.5019 10.8698 15.0793 10.4849 15.5797L10.3694 15.6952L10.5234 15.7722C11.0623 16.0417 11.5242 16.4651 11.8322 16.9655L11.9477 17.1195L12.0632 16.9655C12.4096 16.4266 12.8715 16.0032 13.4104 15.7337Z" fill="white"/>
<path d="M13.6797 13.8479C13.6797 14.9257 14.565 15.8495 15.6814 15.8495C16.7592 15.8495 17.683 14.9642 17.683 13.8479C17.683 12.77 16.7977 11.8462 15.6814 11.8462C14.565 11.8847 13.6797 12.77 13.6797 13.8479Z" fill="white"/>
<path d="M17.1409 16.2348L17.0639 16.1963L17.0254 16.2348C16.1786 16.7352 15.1007 16.7352 14.2539 16.2348L14.2154 16.1963L14.1384 16.2348C12.9066 16.6967 12.1367 17.8515 12.1367 19.1603V20.0457H19.1811V19.1603C19.1426 17.89 18.3727 16.7352 17.1409 16.2348Z" fill="white"/>
</svg>
