<svg width="764" height="94" viewBox="0 0 764 94" fill="none" xmlns="http://www.w3.org/2000/svg">
<g clip-path="url(#clip0_0_5008)">
<path d="M770.5 23C770.5 23 735.378 44.3196 722 50.5288C696.545 62.3433 678.562 57.5415 650.5 57.7094C608.126 57.963 584.707 35.4616 543 42.9563C525.08 46.1764 505.256 56.2167 498.615 57.2219C491.975 58.2261 485.515 57.1293 478.251 54.6217C470.987 52.1131 462.917 48.1938 455.93 47.136C448.944 46.0781 443.039 47.8818 438.18 49.2389C433.32 50.5961 429.505 51.5067 426.177 52.2828C422.85 53.0588 420.011 53.7004 418.102 53.3972C416.193 53.0939 415.215 51.847 414.725 50.4225C414.236 48.9981 414.236 47.3972 414.465 45.9075C414.694 44.4178 415.151 43.0401 415.447 42.226C415.742 41.412 415.876 41.1624 415.924 41.7327C415.971 42.3031 415.935 43.6924 415.946 44.8721C415.957 46.0528 416.015 47.0229 416.2 48.0388C416.384 49.0547 416.693 50.1154 416.554 52.1765C416.416 54.2366 415.83 57.297 414.358 61.2183C412.886 65.1396 410.527 69.9218 407.229 74.3852C403.931 78.8485 399.693 82.9921 394.892 86.152C390.09 89.3118 384.725 91.4879 380.925 92.5887C377.126 93.6884 374.892 93.7148 373.894 93.2458C372.895 92.7778 373.132 91.8146 373.801 91.1584C374.472 90.5023 375.577 90.1523 376.978 89.7252C378.38 89.2992 380.078 88.7961 381.211 88.1516C382.344 87.5072 382.912 86.7223 383.531 85.6431C384.15 84.5638 384.817 83.191 385.989 81.8738C387.161 80.5557 388.837 79.2941 390.35 78.6389C391.864 77.9837 393.213 77.935 393.481 78.9529C393.749 79.9707 392.936 82.0562 392.069 82.96C391.204 83.8647 390.283 83.5878 389.609 82.7903C388.935 81.9928 388.507 80.6756 388.246 79.3419C387.987 78.0072 387.896 76.6568 388.437 74.5226C388.978 72.3884 390.15 69.4704 390.85 66.877C391.55 64.2836 391.778 62.0139 392.633 60.7308C393.488 59.4468 394.971 59.1485 395.151 59.4907C395.331 59.8329 394.21 60.8147 392.402 61.504C390.593 62.1933 388.097 62.5911 385.793 62.088C383.49 61.5849 381.378 60.1809 380.347 58.5108C379.317 56.8407 379.367 54.9035 380.339 54.8031C381.312 54.7026 383.204 56.4371 384.897 57.7036C386.591 58.97 388.087 59.7676 389.235 59.3551C390.383 58.9427 391.184 57.3214 392.253 55.9379C393.321 54.5544 394.657 53.4108 395.483 52.4631C396.308 51.5165 396.622 50.7657 396.242 50.0189C395.861 49.2711 394.786 48.5272 393.397 48.4483C392.009 48.3693 390.308 48.9562 389.656 48.9182C389.004 48.8792 389.401 48.2162 390.439 47.9695C391.478 47.7229 393.158 47.8935 394.646 47.406C396.134 46.9185 397.428 45.773 399.048 45.8363C400.668 45.8997 402.615 47.173 404.698 48.07C406.781 48.9679 409 49.4895 410.213 50.6166C411.426 51.7436 411.634 53.4761 411.391 53.8915C411.148 54.3068 410.456 53.404 410.239 52.0712C410.021 50.7384 410.278 48.9757 410.06 46.8425C409.843 44.7093 409.15 42.2056 409.103 40.7928C409.055 39.3811 409.654 39.0594 410.703 39.2134C411.752 39.3675 413.252 39.9963 414.249 39.7487C415.246 39.501 415.738 38.3769 415.595 36.6249C415.452 34.8729 414.672 32.493 413.573 31.0111C412.474 29.5281 411.058 28.9432 411.061 29.6178C411.063 30.2925 412.487 32.2249 413.19 32.7494C413.892 33.273 413.873 32.3877 413.405 30.9643C412.937 29.5408 412.02 27.5782 411.311 25.7063C410.602 23.8344 410.101 22.0512 409.089 20.4873C408.077 18.9225 406.553 17.5771 405.077 16.8429C403.601 16.1088 402.172 15.9869 401.803 16.3778C401.436 16.7688 402.128 17.6716 403.047 17.9485C403.967 18.2254 405.113 17.8773 405.216 17.2056C405.318 16.5348 404.375 15.5404 402.978 14.1978C401.581 12.8553 399.73 11.1638 396.203 9.09098C392.677 7.01821 387.475 4.56423 383.575 3.07157C379.676 1.5789 377.078 1.04755 374.76 1.09142C372.441 1.13627 370.403 1.75634 368.197 2.3306C365.991 2.90485 363.618 3.4323 361.624 3.96951C359.63 4.50671 358.015 5.05464 357.565 6.13782C357.115 7.22198 357.831 8.84139 358.661 10.1059C359.492 11.3704 360.437 12.2801 360.177 13.3262C359.919 14.3733 358.455 15.556 356.525 16.8536C354.595 18.1503 352.198 19.5621 351.953 20.9036C351.707 22.2452 353.612 23.5165 354.561 23.4366C355.511 23.3557 355.506 21.9234 355.085 21.1327C354.663 20.343 353.824 20.1938 352.26 20.4269C350.695 20.6599 348.404 21.2731 347.641 20.6423C346.879 20.0115 347.644 18.1357 349.047 16.8458C350.45 15.555 352.491 14.8511 353.359 13.8624C354.228 12.8738 353.925 11.6015 352.657 11.737C351.389 11.8725 349.158 13.4149 348.053 13.8069C346.947 14.1998 346.967 13.4413 347.007 12.7266C347.047 12.011 347.106 11.3392 346.371 11.2564C345.636 11.1745 344.106 11.6815 343.224 12.3747C342.342 13.0669 342.108 13.9453 342.151 14.7263C342.194 15.5072 342.513 16.1897 342.359 17.2387C342.205 18.2878 341.578 19.7034 340.712 21.3872C339.846 23.071 338.742 25.0219 338.016 25.3816C337.29 25.7414 336.944 24.51 336.45 24.0761C335.955 23.6423 335.314 24.004 334.798 24.3911C334.282 24.7771 333.892 25.1886 332.76 25.7697C331.628 26.3507 329.756 27.1015 329.149 26.9172C328.544 26.7329 329.205 25.6127 330.155 23.9104C331.106 22.2081 332.345 19.9238 334.658 16.9092C336.97 13.8946 340.354 10.1508 344.302 7.4316C348.25 4.71243 352.76 3.01989 356.664 1.92209C360.569 0.824279 363.868 0.321199 366.202 0.509366C368.535 0.696559 369.902 1.57597 371.141 2.51389C372.38 3.4518 373.49 4.45016 374.547 5.13069C375.603 5.81121 376.605 6.17487 377.054 6.7345C377.502 7.29413 377.398 8.04972 376.96 8.69125C376.522 9.33277 375.749 9.86023 375.758 10.3448C375.767 10.8293 376.556 11.272 376.915 11.9973C377.275 12.7227 377.206 13.7318 376.877 14.229C376.548 14.7263 375.959 14.7107 375.246 14.5654C374.534 14.4201 373.698 14.1452 373.502 14.3928C373.306 14.6405 373.749 15.4097 374.235 16.139C374.722 16.8683 375.251 17.5556 375.189 18.3336C375.126 19.1107 374.471 19.9784 373.349 20.2016C372.227 20.4249 370.637 20.0037 368.875 20.5263C367.113 21.0489 365.179 22.5143 363.754 23.8041C362.33 25.094 361.416 26.2074 361.332 27.0264C361.247 27.8454 361.992 28.3709 362.246 29.0933C362.502 29.8167 362.267 30.7371 361.513 31.3494C360.76 31.9616 359.488 32.2649 358.723 31.7394C357.957 31.2129 357.698 29.8586 357.483 29.1996C357.269 28.5405 357.1 28.5785 356.311 28.9578C355.521 29.338 354.112 30.0585 353.062 30.7264C352.012 31.3932 351.322 32.0075 352.128 32.5973C352.934 33.1881 355.236 33.7536 355.813 34.2323C356.391 34.711 355.242 35.102 354.99 35.8751C354.739 36.6483 355.382 37.8026 355.281 38.4529C355.18 39.1032 354.333 39.2495 354.369 39.893C354.405 40.5364 355.323 41.6771 355.097 42.8666C354.871 44.056 353.5 45.2942 352.144 45.2163C350.786 45.1383 349.444 43.7441 349.283 42.4815C349.122 41.2179 350.144 40.086 351.519 40.0802C352.892 40.0743 354.62 41.1945 355.777 41.604C356.935 42.0135 357.521 41.7132 358.275 41.7015C359.028 41.6888 359.948 41.9657 360.629 41.7103C361.309 41.4539 361.751 40.6651 362.824 40.7041C363.897 40.7431 365.602 41.6099 365.956 42.9563C366.31 44.3037 365.314 46.1308 364.732 45.8363C364.15 45.5419 363.982 43.1259 364.741 42.6931C365.501 42.2602 367.187 43.8104 368.839 44.4753C370.49 45.1392 372.108 44.9189 372.265 44.565C372.421 44.2111 371.117 43.7236 370.749 43.9303C370.38 44.136 370.946 45.0359 371.734 45.499C372.523 45.9621 373.533 45.9894 374.528 45.8256C375.522 45.6618 376.5 45.3089 377.136 45.1782C377.77 45.0476 378.063 45.1402 378.211 45.9231C378.359 46.706 378.362 48.1811 377.459 48.8733C376.557 49.5656 374.747 49.4759 373.102 49.5587C371.457 49.6416 369.976 49.897 368.642 50.1574C367.307 50.4177 366.121 50.6809 365.135 50.5288C364.149 50.3767 363.363 49.8083 362.688 49.0742C362.012 48.34 361.446 47.4401 360.427 46.9293C359.408 46.4184 357.937 46.2955 356.32 46.1054C354.703 45.9153 352.94 45.6589 351.925 45.8217C350.91 45.9845 350.642 46.5675 349.866 47.2422C349.09 47.9169 347.806 48.6832 346.41 49.7001C345.014 50.717 343.506 51.9835 342.844 53.9246C342.182 55.8658 342.366 58.4826 342.802 61.1481C343.237 63.8137 343.924 66.5279 345.104 68.0967C346.285 69.6654 347.959 70.0885 349.6 70.1529C351.241 70.2172 352.849 69.9228 354.19 70.2104C355.531 70.498 356.603 71.3686 357.461 71.5812C358.319 71.7937 358.962 71.3472 359.462 71.5919C359.961 71.8366 360.316 72.7736 360.801 73.5233C361.287 74.273 361.904 74.8366 362.849 75.7677C363.793 76.6988 365.066 77.9955 365.392 79.1839C365.719 80.3724 365.101 81.4517 365.049 82.6294C364.997 83.8072 365.511 85.0844 366.344 86.2651C367.177 87.4448 368.328 88.5289 369.595 89.1939C370.862 89.8588 372.246 90.1064 373.012 90.6319C373.777 91.1574 373.924 91.9618 371.634 92.5546C369.344 93.1473 364.615 93.5285 358.655 91.876C352.695 90.2234 345.504 86.5381 340.525 82.8469C335.546 79.1557 332.778 75.4596 330.817 72.3329C328.857 69.2062 327.702 66.6479 327.448 66.7044C327.193 66.76 327.839 69.4314 328.88 70.7018C329.921 71.9721 331.357 71.8415 331.965 71.1619C332.572 70.4824 332.352 69.2549 331.567 67.8441C330.782 66.4334 329.435 64.8393 328.589 63.3632C327.743 61.8871 327.399 60.53 326.991 59.2557C326.581 57.9805 326.107 56.7891 325.743 56.2314C325.378 55.6747 325.123 55.7517 325.041 56.5083C324.958 57.2639 325.045 58.699 324.88 58.6103C324.714 58.5216 324.293 56.909 323.9 55.0244C323.507 53.1398 323.142 50.9812 323.071 48.0729C323 45.1646 323.222 41.5046 323.933 38.5114C324.644 35.5183 325.842 33.1911 326.682 33.2759C327.523 33.3617 328.004 35.8595 327.749 38.3808C327.493 40.9011 326.499 43.4457 326.193 45.4805C325.887 47.5162 326.268 49.043 326.064 50.3855C325.861 51.728 325.072 52.8873 320.926 51.9357C316.781 50.9841 309.278 47.9218 301.657 47.7638C294.037 47.6049 286.297 50.3504 279.363 52.9068C272.429 55.4621 266.299 57.8293 256.95 57.7094C247.601 57.5895 214.07 44.8321 201.5 42.226C188.93 39.62 156.113 47.1658 127 50.0189C100.654 52.6008 85.4396 61.513 59.5 56.2314C40.2505 52.3119 33.0043 33.5321 13.5 35.8751C-6.12236 38.2324 -26.5 66.877 -26.5 66.877" stroke="black" stroke-miterlimit="2.61"/>
</g>
<defs>
<clipPath id="clip0_0_5008">
<rect width="775" height="94" fill="white" transform="translate(-11)"/>
</clipPath>
</defs>
</svg>
