<svg width="24" height="24" viewBox="0 0 24 24" fill="none" xmlns="http://www.w3.org/2000/svg">
<rect width="24" height="24" rx="4" fill="black"/>
<path d="M10.8204 16.1922L8.72307 13.4217L5.53516 17.8044C5.74386 17.9088 5.97863 17.9661 6.22386 17.9661H17.7023C17.9475 17.9661 18.1875 17.9088 18.3962 17.7992L13.8205 11.5068L11.1595 14.9138L11.6552 15.566C11.8274 15.7955 11.7804 16.119 11.5509 16.2964C11.3213 16.4686 10.9978 16.4216 10.8204 16.1921V16.1922Z" fill="white"/>
<path d="M9.35821 9.7753C9.35821 10.8188 7.79297 10.8188 7.79297 9.7753C7.79297 8.7318 9.35821 8.7318 9.35821 9.7753Z" fill="white"/>
<path d="M17.7038 5.96631H6.2254C5.36452 5.96631 4.66016 6.67068 4.66016 7.53155V16.4012C4.66016 16.6308 4.71233 16.8499 4.80103 17.043L8.29682 12.2378C8.39595 12.1073 8.54726 12.0238 8.71421 12.0238H8.71943C8.88117 12.0238 9.03769 12.1021 9.13683 12.2325L10.5142 14.0534L13.4257 10.3177C13.5248 10.1925 13.6918 10.1194 13.8483 10.1194C14.01 10.1246 14.1613 10.2029 14.2605 10.3333L19.1337 17.0326C19.2224 16.8395 19.2693 16.6256 19.2693 16.4013V7.53157C19.2693 6.67069 18.565 5.96633 17.7041 5.96633L17.7038 5.96631ZM8.57318 11.6012C7.56621 11.6012 6.74698 10.782 6.74698 9.77498C6.74698 8.76791 7.56611 7.94878 8.57318 7.94878C9.58024 7.94878 10.3994 8.76791 10.3994 9.77498C10.3994 10.782 9.58024 11.6012 8.57318 11.6012Z" fill="white"/>
</svg>
