<svg width="24" height="24" viewBox="0 0 24 24" fill="none" xmlns="http://www.w3.org/2000/svg">
<rect width="24" height="24" rx="4" fill="black"/>
<path d="M10.1082 5.93984C12.8084 5.93984 14.9982 7.9865 14.9982 10.5097C14.9982 13.034 12.8082 15.0796 10.1068 15.0785C7.40707 15.0785 5.21915 13.0327 5.21797 10.5097C5.21797 9.27493 5.7526 8.09184 6.69972 7.23157C7.288 6.69786 8.00993 6.3106 8.7994 6.10565C8.7994 6.10565 8.7994 6.10565 8.80034 6.10565C9.22602 5.99592 9.66581 5.93984 10.1082 5.93984ZM10.1082 4.80029C9.49545 4.80139 8.88764 4.88738 8.30289 5.05692C7.384 5.32147 6.54442 5.78635 5.85307 6.41308C4.66805 7.48732 4 8.96486 4 10.5088C3.99883 12.0229 4.64311 13.4751 5.78813 14.5461C6.93386 15.6172 8.48785 16.2184 10.1082 16.2184C11.2603 16.2149 12.3879 15.9079 13.3611 15.3318L13.5411 15.522C14.0351 16.0808 14.9015 16.043 15.4615 15.5196C16.0216 14.9951 16.0646 14.1852 15.4665 13.7249L15.269 13.5598C15.8865 12.6483 16.215 11.5897 16.2162 10.5099C16.2162 8.99587 15.5726 7.54361 14.4269 6.47245C13.2816 5.40283 11.7285 4.80029 10.1082 4.80029Z" fill="white"/>
<path d="M15.1602 16.3991L17.8662 19.3711C18.4385 19.9816 19.1616 19.7881 19.5955 19.3828C20.0283 18.9784 20.2365 18.3026 19.5833 17.7678L16.4028 15.2378C16.2692 15.468 16.0915 15.6934 15.8699 15.901C15.648 16.1093 15.4063 16.2742 15.1602 16.3991Z" fill="white"/>
<path d="M10.1116 8.25562C7.90438 8.25562 6.625 9.94625 6.625 10.5099C6.625 11.0746 7.90438 12.765 10.1116 12.765C12.319 12.765 13.5987 11.0746 13.5987 10.5099C13.5987 9.94625 12.3193 8.25562 10.1116 8.25562ZM10.1116 8.96701C10.5493 8.96701 10.9698 9.12974 11.2797 9.41825C11.5884 9.70787 11.7625 10.1008 11.7625 10.5099C11.7625 11.362 11.0237 12.0527 10.1116 12.0527C9.67416 12.0527 9.25389 11.89 8.94375 11.6013C8.63479 11.3116 8.46089 10.9187 8.46089 10.5099C8.46089 10.1008 8.63479 9.70787 8.94375 9.41825C9.25389 9.12974 9.67439 8.96701 10.1116 8.96701Z" fill="white"/>
<path d="M11.2314 10.5094C11.2314 11.0153 10.8482 11.4519 10.3149 11.5479C9.78329 11.644 9.25284 11.3738 9.05054 10.9043C8.84848 10.4338 9.03102 9.89678 9.48548 9.62111C9.94113 9.3461 10.5414 9.41271 10.9164 9.77785L10.1006 10.5094H11.2314Z" fill="white"/>
</svg>
