<svg width="25" height="24" viewBox="0 0 25 24" fill="none" xmlns="http://www.w3.org/2000/svg">
<rect x="0.03125" width="24" height="24" rx="4" fill="white"/>
<path d="M18.5057 18.6976V7.53475C18.504 7.18986 18.3663 6.85957 18.1224 6.61569C17.8785 6.37181 17.5482 6.23407 17.2033 6.23242H17.0173V16.465C17.0174 16.7338 16.9646 17 16.8618 17.2484C16.759 17.4967 16.6083 17.7224 16.4182 17.9125C16.2282 18.1025 16.0025 18.2533 15.7541 18.3561C15.5058 18.4589 15.2396 18.5117 14.9708 18.5115H6.22656V18.6976C6.22821 19.0425 6.36595 19.3728 6.60983 19.6166C6.85371 19.8605 7.184 19.9983 7.52889 19.9999H17.2033C17.5482 19.9983 17.8785 19.8605 18.1224 19.6166C18.3663 19.3728 18.504 19.0425 18.5057 18.6976Z" fill="black"/>
<path d="M8.46467 8.27863V4.01172C8.16373 4.03876 7.88148 4.16929 7.66598 4.38109L4.38109 7.66598C4.16928 7.88147 4.03874 8.16373 4.01172 8.46467H8.27863C8.32794 8.46458 8.37521 8.44495 8.41008 8.41008C8.44495 8.37521 8.46458 8.32794 8.46467 8.27863Z" fill="black"/>
<path d="M4 16.4652C4.00042 16.8104 4.13776 17.1414 4.38191 17.3856C4.62605 17.6297 4.95706 17.7671 5.30233 17.7675H14.9768C15.322 17.7671 15.6531 17.6297 15.8972 17.3856C16.1413 17.1414 16.2787 16.8104 16.2791 16.4652V5.30233C16.2787 4.95706 16.1413 4.62605 15.8972 4.38191C15.6531 4.13776 15.322 4.00042 14.9768 4H9.58141V8.27908C9.58099 8.62435 9.44365 8.95536 9.1995 9.1995C8.95536 9.44365 8.62435 9.58099 8.27908 9.58141H4V16.4652Z" fill="black"/>
</svg>
