<svg width="335" height="36" viewBox="0 0 335 36" fill="none" xmlns="http://www.w3.org/2000/svg">
<path d="M0 8C0 3.58172 3.58172 0 8 0H68V16H8C3.58172 16 0 12.4183 0 8Z" fill="#C5D6B6"/>
<rect x="68" width="67" height="16" fill="#81C2A7"/>
<rect x="200" width="67" height="16" fill="#326284"/>
<rect x="135" width="68" height="16" fill="#4CB2AC"/>
<path d="M267 0H327C331.418 0 335 3.58172 335 8C335 12.4183 331.418 16 327 16H267V0Z" fill="#162C3B"/>
<path d="M3.2168 33.123C1.6582 33.123 0.673828 31.9336 0.673828 30.041C0.673828 26.8945 2.34375 24.4219 4.4707 24.4219C6.0293 24.4219 7.00781 25.6172 7.00781 27.5098C7.00781 30.6621 5.34375 33.123 3.2168 33.123ZM1.1543 30.041C1.1543 31.6699 1.96289 32.707 3.22852 32.707C5.04492 32.707 6.52734 30.375 6.52734 27.5098C6.52734 25.8809 5.72461 24.8438 4.45898 24.8438C2.64258 24.8438 1.1543 27.1816 1.1543 30.041Z" fill="black"/>
<path d="M39.252 33.123C37.7402 33.123 36.5566 32.1562 36.5508 30.9141V30.8555H37.0078V30.8906C37.0312 31.916 38.0098 32.6953 39.2695 32.6953C40.7812 32.6953 41.9062 31.5586 41.9062 30.0293C41.9062 28.7871 41.0391 27.9551 39.7559 27.9551C38.9414 27.9551 37.998 28.4004 37.5117 29.0625C37.5117 29.0684 37.207 29.0684 37.0137 29.0684L38.4141 24.5449H42.9082L42.8145 24.9668H38.7305L37.6406 28.4883H37.6641C38.1504 27.9258 39.0352 27.5449 39.8438 27.5449C41.3086 27.5449 42.375 28.5234 42.375 29.9766C42.375 31.7871 41.0625 33.123 39.252 33.123ZM43.1892 34.5234H42.8025L43.9099 31.916H44.3904L43.1892 34.5234ZM48.2749 33.123C46.7163 33.123 45.732 31.9336 45.732 30.041C45.732 26.8945 47.4019 24.4219 49.5288 24.4219C51.0874 24.4219 52.0659 25.6172 52.0659 27.5098C52.0659 30.6621 50.4019 33.123 48.2749 33.123ZM46.2124 30.041C46.2124 31.6699 47.021 32.707 48.2866 32.707C50.103 32.707 51.5855 30.375 51.5855 27.5098C51.5855 25.8809 50.7827 24.8438 49.5171 24.8438C47.7007 24.8438 46.2124 27.1816 46.2124 30.041ZM55.7102 33.123C54.1516 33.123 53.1673 31.9336 53.1673 30.041C53.1673 26.8945 54.8372 24.4219 56.9641 24.4219C58.5227 24.4219 59.5012 25.6172 59.5012 27.5098C59.5012 30.6621 57.8372 33.123 55.7102 33.123ZM53.6477 30.041C53.6477 31.6699 54.4563 32.707 55.722 32.707C57.5384 32.707 59.0208 30.375 59.0208 27.5098C59.0208 25.8809 58.218 24.8438 56.9524 24.8438C55.136 24.8438 53.6477 27.1816 53.6477 30.041ZM63.1455 33.123C61.587 33.123 60.6026 31.9336 60.6026 30.041C60.6026 26.8945 62.2725 24.4219 64.3995 24.4219C65.958 24.4219 66.9366 25.6172 66.9366 27.5098C66.9366 30.6621 65.2725 33.123 63.1455 33.123ZM61.083 30.041C61.083 31.6699 61.8916 32.707 63.1573 32.707C64.9737 32.707 66.4561 30.375 66.4561 27.5098C66.4561 25.8809 65.6534 24.8438 64.3877 24.8438C62.5713 24.8438 61.083 27.1816 61.083 30.041Z" fill="black"/>
<path d="M100.186 33L101.861 25.1074H101.838C101.252 25.4062 99.9512 26.1797 99.2363 26.5898L99.3535 26.0391C99.834 25.7578 101.094 25.0137 101.984 24.5449H102.447L100.648 33H100.186ZM106.203 33.123C104.644 33.123 103.66 31.9336 103.66 30.041C103.66 26.8945 105.33 24.4219 107.457 24.4219C109.015 24.4219 109.994 25.6172 109.994 27.5098C109.994 30.6621 108.33 33.123 106.203 33.123ZM104.14 30.041C104.14 31.6699 104.949 32.707 106.215 32.707C108.031 32.707 109.513 30.375 109.513 27.5098C109.513 25.8809 108.711 24.8438 107.445 24.8438C105.629 24.8438 104.14 27.1816 104.14 30.041ZM110.292 34.5234H109.906L111.013 31.916H111.494L110.292 34.5234ZM115.378 33.123C113.82 33.123 112.835 31.9336 112.835 30.041C112.835 26.8945 114.505 24.4219 116.632 24.4219C118.191 24.4219 119.169 25.6172 119.169 27.5098C119.169 30.6621 117.505 33.123 115.378 33.123ZM113.316 30.041C113.316 31.6699 114.124 32.707 115.39 32.707C117.206 32.707 118.689 30.375 118.689 27.5098C118.689 25.8809 117.886 24.8438 116.62 24.8438C114.804 24.8438 113.316 27.1816 113.316 30.041ZM122.814 33.123C121.255 33.123 120.271 31.9336 120.271 30.041C120.271 26.8945 121.94 24.4219 124.067 24.4219C125.626 24.4219 126.605 25.6172 126.605 27.5098C126.605 30.6621 124.94 33.123 122.814 33.123ZM120.751 30.041C120.751 31.6699 121.56 32.707 122.825 32.707C124.642 32.707 126.124 30.375 126.124 27.5098C126.124 25.8809 125.321 24.8438 124.056 24.8438C122.239 24.8438 120.751 27.1816 120.751 30.041ZM130.249 33.123C128.69 33.123 127.706 31.9336 127.706 30.041C127.706 26.8945 129.376 24.4219 131.503 24.4219C133.061 24.4219 134.04 25.6172 134.04 27.5098C134.04 30.6621 132.376 33.123 130.249 33.123ZM128.186 30.041C128.186 31.6699 128.995 32.707 130.261 32.707C132.077 32.707 133.559 30.375 133.559 27.5098C133.559 25.8809 132.757 24.8438 131.491 24.8438C129.675 24.8438 128.186 27.1816 128.186 30.041Z" fill="black"/>
<path d="M168.186 33L169.861 25.1074H169.838C169.252 25.4062 167.951 26.1797 167.236 26.5898L167.354 26.0391C167.834 25.7578 169.094 25.0137 169.984 24.5449H170.447L168.648 33H168.186ZM174.156 33.123C172.644 33.123 171.461 32.1562 171.455 30.9141V30.8555H171.912V30.8906C171.935 31.916 172.914 32.6953 174.174 32.6953C175.685 32.6953 176.81 31.5586 176.81 30.0293C176.81 28.7871 175.943 27.9551 174.66 27.9551C173.845 27.9551 172.902 28.4004 172.416 29.0625C172.416 29.0684 172.111 29.0684 171.918 29.0684L173.318 24.5449H177.812L177.719 24.9668H173.635L172.545 28.4883H172.568C173.054 27.9258 173.939 27.5449 174.748 27.5449C176.213 27.5449 177.279 28.5234 177.279 29.9766C177.279 31.7871 175.967 33.123 174.156 33.123ZM178.093 34.5234H177.707L178.814 31.916H179.294L178.093 34.5234ZM183.179 33.123C181.62 33.123 180.636 31.9336 180.636 30.041C180.636 26.8945 182.306 24.4219 184.433 24.4219C185.991 24.4219 186.97 25.6172 186.97 27.5098C186.97 30.6621 185.306 33.123 183.179 33.123ZM181.116 30.041C181.116 31.6699 181.925 32.707 183.191 32.707C185.007 32.707 186.49 30.375 186.49 27.5098C186.49 25.8809 185.687 24.8438 184.421 24.8438C182.605 24.8438 181.116 27.1816 181.116 30.041ZM190.614 33.123C189.056 33.123 188.071 31.9336 188.071 30.041C188.071 26.8945 189.741 24.4219 191.868 24.4219C193.427 24.4219 194.405 25.6172 194.405 27.5098C194.405 30.6621 192.741 33.123 190.614 33.123ZM188.552 30.041C188.552 31.6699 189.36 32.707 190.626 32.707C192.442 32.707 193.925 30.375 193.925 27.5098C193.925 25.8809 193.122 24.8438 191.856 24.8438C190.04 24.8438 188.552 27.1816 188.552 30.041ZM198.05 33.123C196.491 33.123 195.507 31.9336 195.507 30.041C195.507 26.8945 197.177 24.4219 199.304 24.4219C200.862 24.4219 201.841 25.6172 201.841 27.5098C201.841 30.6621 200.177 33.123 198.05 33.123ZM195.987 30.041C195.987 31.6699 196.796 32.707 198.061 32.707C199.878 32.707 201.36 30.375 201.36 27.5098C201.36 25.8809 200.557 24.8438 199.292 24.8438C197.475 24.8438 195.987 27.1816 195.987 30.041Z" fill="black"/>
<path d="M229.418 26.748C229.658 25.3711 230.801 24.4219 232.225 24.4219C233.572 24.4219 234.609 25.3125 234.609 26.4785C234.609 27.5039 234.135 28.1484 232.166 29.8242L228.967 32.5488L228.961 32.5723H233.736L233.648 33H228.188L228.264 32.6133L231.908 29.502C233.713 27.9551 234.141 27.3867 234.141 26.5137C234.141 25.5527 233.314 24.8379 232.207 24.8379C231.053 24.8379 230.104 25.623 229.887 26.748H229.418ZM238.183 33.123C236.625 33.123 235.64 31.9336 235.64 30.041C235.64 26.8945 237.31 24.4219 239.437 24.4219C240.996 24.4219 241.974 25.6172 241.974 27.5098C241.974 30.6621 240.31 33.123 238.183 33.123ZM236.121 30.041C236.121 31.6699 236.929 32.707 238.195 32.707C240.011 32.707 241.494 30.375 241.494 27.5098C241.494 25.8809 240.691 24.8438 239.426 24.8438C237.609 24.8438 236.121 27.1816 236.121 30.041ZM242.273 34.5234H241.886L242.994 31.916H243.474L242.273 34.5234ZM247.359 33.123C245.8 33.123 244.816 31.9336 244.816 30.041C244.816 26.8945 246.486 24.4219 248.613 24.4219C250.171 24.4219 251.15 25.6172 251.15 27.5098C251.15 30.6621 249.486 33.123 247.359 33.123ZM245.296 30.041C245.296 31.6699 246.105 32.707 247.37 32.707C249.187 32.707 250.669 30.375 250.669 27.5098C250.669 25.8809 249.866 24.8438 248.601 24.8438C246.784 24.8438 245.296 27.1816 245.296 30.041ZM254.794 33.123C253.235 33.123 252.251 31.9336 252.251 30.041C252.251 26.8945 253.921 24.4219 256.048 24.4219C257.606 24.4219 258.585 25.6172 258.585 27.5098C258.585 30.6621 256.921 33.123 254.794 33.123ZM252.731 30.041C252.731 31.6699 253.54 32.707 254.806 32.707C256.622 32.707 258.105 30.375 258.105 27.5098C258.105 25.8809 257.302 24.8438 256.036 24.8438C254.22 24.8438 252.731 27.1816 252.731 30.041ZM262.229 33.123C260.671 33.123 259.686 31.9336 259.686 30.041C259.686 26.8945 261.356 24.4219 263.483 24.4219C265.042 24.4219 266.02 25.6172 266.02 27.5098C266.02 30.6621 264.356 33.123 262.229 33.123ZM260.167 30.041C260.167 31.6699 260.975 32.707 262.241 32.707C264.057 32.707 265.54 30.375 265.54 27.5098C265.54 25.8809 264.737 24.8438 263.471 24.8438C261.655 24.8438 260.167 27.1816 260.167 30.041Z" fill="black"/>
<path d="M297.418 26.748C297.658 25.3711 298.801 24.4219 300.225 24.4219C301.572 24.4219 302.609 25.3125 302.609 26.4785C302.609 27.5039 302.135 28.1484 300.166 29.8242L296.967 32.5488L296.961 32.5723H301.736L301.648 33H296.188L296.264 32.6133L299.908 29.502C301.713 27.9551 302.141 27.3867 302.141 26.5137C302.141 25.5527 301.314 24.8379 300.207 24.8379C299.053 24.8379 298.104 25.623 297.887 26.748H297.418ZM306.301 33.123C304.789 33.123 303.605 32.1562 303.599 30.9141V30.8555H304.056V30.8906C304.08 31.916 305.058 32.6953 306.318 32.6953C307.83 32.6953 308.955 31.5586 308.955 30.0293C308.955 28.7871 308.088 27.9551 306.804 27.9551C305.99 27.9551 305.047 28.4004 304.56 29.0625C304.56 29.0684 304.256 29.0684 304.062 29.0684L305.463 24.5449H309.957L309.863 24.9668H305.779L304.689 28.4883H304.713C305.199 27.9258 306.084 27.5449 306.892 27.5449C308.357 27.5449 309.424 28.5234 309.424 29.9766C309.424 31.7871 308.111 33.123 306.301 33.123ZM310.238 34.5234H309.851L310.959 31.916H311.439L310.238 34.5234ZM315.324 33.123C313.765 33.123 312.781 31.9336 312.781 30.041C312.781 26.8945 314.45 24.4219 316.577 24.4219C318.136 24.4219 319.115 25.6172 319.115 27.5098C319.115 30.6621 317.45 33.123 315.324 33.123ZM313.261 30.041C313.261 31.6699 314.07 32.707 315.335 32.707C317.152 32.707 318.634 30.375 318.634 27.5098C318.634 25.8809 317.831 24.8438 316.566 24.8438C314.749 24.8438 313.261 27.1816 313.261 30.041ZM322.759 33.123C321.2 33.123 320.216 31.9336 320.216 30.041C320.216 26.8945 321.886 24.4219 324.013 24.4219C325.571 24.4219 326.55 25.6172 326.55 27.5098C326.55 30.6621 324.886 33.123 322.759 33.123ZM320.696 30.041C320.696 31.6699 321.505 32.707 322.771 32.707C324.587 32.707 326.069 30.375 326.069 27.5098C326.069 25.8809 325.267 24.8438 324.001 24.8438C322.185 24.8438 320.696 27.1816 320.696 30.041ZM330.194 33.123C328.636 33.123 327.651 31.9336 327.651 30.041C327.651 26.8945 329.321 24.4219 331.448 24.4219C333.007 24.4219 333.985 25.6172 333.985 27.5098C333.985 30.6621 332.321 33.123 330.194 33.123ZM328.132 30.041C328.132 31.6699 328.94 32.707 330.206 32.707C332.022 32.707 333.505 30.375 333.505 27.5098C333.505 25.8809 332.702 24.8438 331.436 24.8438C329.62 24.8438 328.132 27.1816 328.132 30.041Z" fill="black"/>
</svg>
