<svg width="25" height="24" viewBox="0 0 25 24" fill="none" xmlns="http://www.w3.org/2000/svg">
<rect x="0.03125" width="24" height="24" rx="4" fill="white"/>
<path d="M4.02123 11.6115V17.7241C5.12161 17.7595 6.34263 18.1063 7.5253 18.4429C8.43117 18.7001 9.36789 18.9666 10.2429 19.0919C10.9037 19.1857 11.5883 18.9688 12.121 18.4951L18.6276 12.7065C18.8221 12.5334 18.9595 12.3051 19.0216 12.0519C19.0836 11.7987 19.0674 11.5325 18.975 11.2888C18.8827 11.0451 18.7185 10.8353 18.5044 10.6872C18.2903 10.5392 18.0364 10.4599 17.7763 10.46C17.5459 10.4601 17.3197 10.5225 17.1217 10.6406L11.2382 14.1436L11.3981 14.2277C11.6077 14.3374 11.7832 14.5027 11.9055 14.7055C12.0279 14.9083 12.0923 15.1409 12.0917 15.378C12.0927 15.6808 11.9864 15.9741 11.7918 16.2057C11.5994 16.4368 11.3329 16.5937 11.0378 16.6494C10.7427 16.7052 10.4375 16.6564 10.1743 16.5114L5.75285 14.0708C5.73191 14.0592 5.71345 14.0436 5.69853 14.0249C5.6836 14.0062 5.6725 13.9847 5.66585 13.9617C5.65921 13.9387 5.65716 13.9145 5.65981 13.8907C5.66246 13.8669 5.66977 13.8438 5.68131 13.8228C5.69285 13.8019 5.70841 13.7833 5.72709 13.7684C5.74577 13.7534 5.7672 13.7423 5.79017 13.7356C5.81314 13.729 5.83719 13.7269 5.86095 13.7296C5.88472 13.7322 5.90772 13.7396 5.92866 13.7511L10.3508 16.1929C10.5397 16.297 10.7587 16.332 10.9706 16.2921C11.1824 16.2522 11.3739 16.1399 11.5122 15.9742C11.6518 15.8081 11.728 15.5977 11.7273 15.3805C11.7277 15.2101 11.6814 15.0428 11.5934 14.897C11.5055 14.7512 11.3793 14.6324 11.2286 14.5536L6.95485 12.3087C6.12581 11.8705 5.20662 11.6313 4.26968 11.6099C4.18489 11.6084 4.10228 11.6087 4.02123 11.6115Z" fill="black"/>
<path d="M2.39706 11.0143V18.4632C2.39705 18.4729 2.40086 18.4821 2.40763 18.489C2.4144 18.4958 2.4236 18.4997 2.43322 18.4998H3.11371C3.23815 18.4996 3.35883 18.457 3.4558 18.3788C3.55277 18.3006 3.62024 18.1916 3.64706 18.0698C3.65588 18.0311 3.66027 17.9916 3.66015 17.952V11.5256C3.66019 11.4536 3.64609 11.3824 3.61864 11.3159C3.59119 11.2494 3.55095 11.189 3.50019 11.1381C3.44944 11.0873 3.38919 11.0469 3.32287 11.0194C3.25655 10.9919 3.18548 10.9777 3.11371 10.9778H2.43322C2.42844 10.9778 2.42371 10.9787 2.41931 10.9806C2.4149 10.9824 2.4109 10.9851 2.40754 10.9885C2.40417 10.9919 2.40152 10.9959 2.39972 11.0004C2.39792 11.0048 2.39701 11.0096 2.39706 11.0143Z" fill="black"/>
<path d="M12.5963 4.76563C13.2347 4.76556 13.8587 4.95527 14.3896 5.31076C14.9204 5.66625 15.3341 6.17155 15.5784 6.76276C15.8228 7.35397 15.8867 8.00454 15.7622 8.6322C15.6377 9.25985 15.3304 9.8364 14.879 10.2889C14.4276 10.7415 13.8525 11.0496 13.2264 11.1745C12.6003 11.2994 11.9514 11.2353 11.3616 10.9904C10.7718 10.7456 10.2677 10.3309 9.91304 9.79877C9.55838 9.26668 9.36907 8.64111 9.36907 8.00117C9.37006 7.14341 9.71039 6.32106 10.3154 5.7145C10.9204 5.10794 11.7407 4.7667 12.5963 4.76563ZM12.0564 10.7705C12.4962 10.8563 12.9499 10.836 13.3803 10.7114C13.4501 10.6914 13.5228 10.6673 13.596 10.6395C13.7811 10.569 13.9581 10.4789 14.1241 10.3708L14.1459 10.357C14.2697 10.2751 14.3868 10.1833 14.496 10.0827C14.5271 10.0533 14.5624 10.0202 14.5948 9.98893C14.8728 9.70868 15.0887 9.37285 15.2285 9.00333C15.262 8.91487 15.2909 8.82476 15.3152 8.73333C15.4429 8.2546 15.4427 7.7506 15.3146 7.27195C15.1866 6.79331 14.9351 6.35687 14.5856 6.00647C14.236 5.65607 13.8006 5.40405 13.3231 5.2757C12.8457 5.14736 12.3429 5.14722 11.8653 5.2753C11.7753 5.29999 11.6845 5.32905 11.5966 5.3628C11.2274 5.50233 10.892 5.71887 10.6125 5.99809C10.5814 6.02934 10.5502 6.06059 10.519 6.09653C10.4186 6.2062 10.327 6.32376 10.2453 6.44808L10.2301 6.47183C10.123 6.63768 10.0337 6.81438 9.96353 6.999C9.93578 7.07213 9.91178 7.14494 9.89183 7.21525C9.78311 7.59153 9.75371 7.98639 9.80552 8.37468C9.85733 8.76298 9.9892 9.13621 10.1928 9.47063C10.3963 9.80504 10.6671 10.0933 10.9878 10.3171C11.3086 10.5409 11.6723 10.6953 12.0558 10.7705H12.0564Z" fill="black"/>
<path fill-rule="evenodd" clip-rule="evenodd" d="M10.231 7.10184C10.2064 7.16777 10.1849 7.23308 10.1665 7.29558C10.0409 7.73061 10.0341 8.19144 10.1468 8.63C10.2594 9.06856 10.4874 9.46879 10.8068 9.78897C11.1263 10.1091 11.5256 10.3375 11.9632 10.4503C12.4007 10.5631 12.8604 10.5561 13.2943 10.4302C13.3566 10.4124 13.4215 10.3908 13.4869 10.3655C13.6538 10.3023 13.8133 10.2211 13.9626 10.1233C13.9684 10.1202 13.974 10.1167 13.9794 10.113C14.0907 10.0392 14.1959 9.95676 14.2943 9.86645C14.3239 9.83926 14.3535 9.81114 14.3822 9.78208C14.6316 9.53105 14.8253 9.23 14.9505 8.89866C14.9806 8.81949 15.0065 8.73875 15.0281 8.65679C15.1709 8.11988 15.1334 7.55078 14.9215 7.03731C14.7097 6.52384 14.3351 6.09452 13.8557 5.81561C13.3763 5.53669 12.8187 5.42367 12.2688 5.49398C11.719 5.5643 11.2075 5.81404 10.8133 6.20467C10.7989 6.21857 10.7848 6.23386 10.77 6.24982C10.7568 6.264 10.7432 6.27871 10.7285 6.29342C10.6383 6.39186 10.5562 6.49752 10.4832 6.60935C10.4801 6.61372 10.4773 6.6181 10.4748 6.62216C10.4737 6.62425 10.4724 6.62624 10.471 6.6281C10.3745 6.77706 10.2941 6.93586 10.231 7.10184ZM11.8242 8.06586L12.5 9.14903H13.1684L12.4325 8.09691C12.6152 8.06241 12.7654 7.99802 12.883 7.90373C13.0031 7.80714 13.0757 7.67376 13.1008 7.50358H13.5175V7.24831H13.0933C13.0707 7.13103 13.0157 7.02869 12.9281 6.9413H13.5175V6.68604H11.8242V6.9413H12.1208C12.246 6.9413 12.3436 6.9712 12.4137 7.03099C12.4838 7.08848 12.5301 7.16093 12.5526 7.24831H11.8242V7.50358H12.5564C12.5313 7.60017 12.4738 7.67606 12.3836 7.73125C12.2935 7.78415 12.1822 7.81059 12.0495 7.81059H11.8242V8.06586Z" fill="black"/>
</svg>
