<svg width="24" height="24" viewBox="0 0 24 24" fill="none" xmlns="http://www.w3.org/2000/svg">
<rect width="24" height="24" rx="4" fill="black"/>
<path d="M8.38173 10.9488C8.21122 11.3756 8.12341 11.8311 8.12296 12.2907V13.9991H4.86418C4.21224 13.9985 3.5871 13.7396 3.12568 13.279C2.66426 12.8185 2.40416 12.1938 2.40234 11.5419V11.3885C2.53778 11.3774 2.66689 11.3264 2.77334 11.2419L5.8283 8.7938C5.92403 8.71737 6.03468 8.66179 6.15315 8.63061C6.27161 8.59944 6.39529 8.59336 6.51624 8.61276C6.63719 8.63216 6.75276 8.67663 6.85553 8.74329C6.9583 8.80996 7.04601 8.89737 7.11303 8.9999L8.38173 10.9488ZM14.0039 4.85944V8.62662H13.8917L13.0535 7.9396C12.7213 7.66683 12.3181 7.49456 11.8913 7.44304C11.4645 7.39152 11.0319 7.46289 10.6443 7.64876L8.53059 8.66555L8.26265 8.25563C8.09181 7.99209 7.86766 7.76726 7.60464 7.59562C7.34163 7.42398 7.04558 7.30933 6.73556 7.25907C6.42554 7.2088 6.10843 7.22403 5.80465 7.30377C5.50088 7.3835 5.21717 7.52599 4.97181 7.72204L2.40234 9.78311V4.85944C2.40356 4.20711 2.66339 3.58187 3.12488 3.12082C3.58636 2.65976 4.21184 2.40051 4.86418 2.3999H11.542C12.1944 2.40051 12.8199 2.65976 13.2813 3.12082C13.7428 3.58187 14.0027 4.20711 14.0039 4.85944ZM9.2428 5.53273C9.24507 5.3506 9.19298 5.17193 9.0932 5.01955C8.99343 4.86716 8.85049 4.74799 8.68264 4.67724C8.5148 4.60649 8.32968 4.58739 8.15093 4.62237C7.97217 4.65735 7.80791 4.74482 7.67911 4.87362C7.55032 5.00241 7.46284 5.16668 7.42786 5.34543C7.39288 5.52418 7.41199 5.70931 7.48273 5.87715C7.55348 6.04499 7.67266 6.18793 7.82504 6.28771C7.97742 6.38749 8.15609 6.43957 8.33822 6.43731C8.57721 6.43434 8.80557 6.33808 8.97457 6.16908C9.14358 6.00008 9.23983 5.77171 9.2428 5.53273ZM16.7428 15.7373L13.926 14.1114C13.9151 14.1053 13.9029 14.1022 13.8905 14.1022C13.8781 14.1022 13.8659 14.1053 13.855 14.1114C13.8434 14.1174 13.8338 14.1267 13.8273 14.1381C13.8209 14.1494 13.8177 14.1624 13.8184 14.1755V17.4251C13.8172 17.438 13.8199 17.4509 13.826 17.4623C13.8321 17.4737 13.8414 17.483 13.8527 17.4892C13.8636 17.4964 13.8763 17.5002 13.8894 17.5002C13.9024 17.5002 13.9151 17.4964 13.926 17.4892L16.7428 15.8633C16.7559 15.859 16.7674 15.8507 16.7756 15.8397C16.7838 15.8286 16.7883 15.8152 16.7886 15.8014C16.7882 15.7874 16.7836 15.7738 16.7754 15.7624C16.7673 15.751 16.7559 15.7423 16.7428 15.7373ZM21.094 12.3022V19.3098C21.094 19.6106 21.0347 19.9084 20.9196 20.1862C20.8045 20.464 20.6359 20.7165 20.4232 20.9292C20.2106 21.1418 19.9581 21.3105 19.6802 21.4256C19.4024 21.5407 19.1046 21.5999 18.8039 21.5999H11.7871C11.1797 21.5999 10.5972 21.3586 10.1677 20.9292C9.73828 20.4997 9.497 19.9172 9.497 19.3098V12.2907C9.497 11.6834 9.73828 11.1009 10.1677 10.6714C10.5972 10.2419 11.1797 10.0007 11.7871 10.0007H18.8085C19.4158 10.0007 19.9983 10.2419 20.4278 10.6714C20.8573 11.1009 21.0985 11.6834 21.0985 12.2907L21.094 12.3022ZM18.1627 15.8014C18.1636 15.547 18.0972 15.2968 17.9701 15.0764C17.8429 14.8559 17.6597 14.6731 17.439 14.5465L14.613 12.9159C14.3926 12.7867 14.1418 12.7183 13.8862 12.7176C13.6307 12.717 13.3796 12.7841 13.1584 12.9121C12.9373 13.0401 12.754 13.2245 12.6274 13.4465C12.5007 13.6684 12.4352 13.92 12.4375 14.1755V17.4251C12.4367 17.6792 12.503 17.929 12.6297 18.1494C12.7563 18.3697 12.9388 18.5527 13.1587 18.68C13.3787 18.8073 13.6283 18.8743 13.8824 18.8743C14.1366 18.8743 14.3862 18.8073 14.6062 18.6801L17.423 17.0541C17.6466 16.9301 17.8331 16.7486 17.9632 16.5284C18.0932 16.3081 18.1621 16.0572 18.1627 15.8014Z" fill="white"/>
</svg>
