<svg width="25" height="24" viewBox="0 0 25 24" fill="none" xmlns="http://www.w3.org/2000/svg">
<rect x="0.03125" width="24" height="24" rx="4" fill="black"/>
<path fill-rule="evenodd" clip-rule="evenodd" d="M3 10.9333C3.09086 9.55988 3.50969 8.27426 4.17839 7.15507C5.20131 7.44832 6.33421 7.68206 7.54596 7.84358C7.37843 8.80337 7.27479 9.84314 7.24782 10.9333L3 10.9333ZM4.86633 6.16916C5.9638 4.81199 7.46939 3.79841 9.19724 3.31534C9.06734 3.49738 8.94312 3.69501 8.82385 3.90892C8.40361 4.66542 8.04584 5.62592 7.7775 6.73155C6.74039 6.59697 5.76297 6.40646 4.86633 6.16916ZM13.8029 3.31534C15.5307 3.79843 17.0364 4.81205 18.1338 6.16916C17.2373 6.40646 16.2599 6.597 15.2226 6.73159C14.9542 5.62587 14.5965 4.66529 14.1762 3.90895C14.057 3.69503 13.9328 3.49738 13.8029 3.31534ZM18.8195 7.15235C19.4896 8.27152 19.9091 9.55792 20 10.9335H15.7521C15.7252 9.84339 15.6215 8.80357 15.454 7.84378C16.6388 7.68582 17.7483 7.45915 18.7534 7.17511C18.7761 7.16873 18.7982 7.16085 18.8195 7.15235ZM20 12.0668C19.9091 13.4424 19.4896 14.7288 18.8195 15.848C18.7982 15.8395 18.7762 15.8317 18.7535 15.8253C17.7483 15.5413 16.6387 15.3146 15.454 15.1567C15.6216 14.1969 15.7252 13.1571 15.7522 12.0669L20 12.0668ZM18.1337 16.831C17.0362 18.1882 15.5306 19.2018 13.8028 19.6848C13.9327 19.5028 14.0569 19.3052 14.1762 19.0913C14.5964 18.3348 14.9542 17.3743 15.2225 16.2686C16.2596 16.4032 17.237 16.5937 18.1337 16.831ZM9.19708 19.6848C7.46926 19.2018 5.96362 18.1881 4.86617 16.831C5.76274 16.5937 6.74013 16.4032 7.77743 16.2686C8.04577 17.3743 8.40353 18.3349 8.82378 19.0912C8.94303 19.3051 9.06716 19.5028 9.19708 19.6848ZM4.18051 15.8478C3.5104 14.7287 3.09086 13.4423 3 12.0667H7.24786C7.27484 13.1568 7.37848 14.1966 7.546 15.1564C6.36123 15.3144 5.2517 15.541 4.24657 15.8251C4.22386 15.8314 4.20181 15.8393 4.18051 15.8478ZM11.4999 3C12.1487 3 12.696 3.58224 13.1823 4.45776C13.5436 5.10871 13.8503 5.92259 14.0874 6.8548C13.2533 6.92847 12.3873 6.96672 11.5 6.96672C10.6127 6.96672 9.7466 6.92847 8.91255 6.8548C9.14965 5.92264 9.45631 5.10876 9.81764 4.45776C10.3039 3.58226 10.8511 3 11.4999 3ZM11.4999 20C10.8511 20 10.3038 19.4178 9.81753 18.5422C9.4562 17.8913 9.14954 17.0774 8.91244 16.1452C9.74653 16.0715 10.6126 16.0333 11.4999 16.0333C12.3871 16.0333 13.2532 16.0715 14.0873 16.1452C13.8502 17.0774 13.5435 17.8912 13.1822 18.5422C12.6959 19.4177 12.1487 20 11.4999 20ZM8.67389 7.97107C9.58252 8.05536 10.5288 8.09999 11.4999 8.09999C12.4711 8.09999 13.4173 8.05536 14.3259 7.97107C14.4885 8.88695 14.5893 9.88505 14.6163 10.9333H8.38362C8.41059 9.88501 8.51132 8.88699 8.67389 7.97107ZM14.3259 15.0289C13.4173 14.9446 12.4711 14.9 11.4999 14.9C10.5288 14.9 9.58252 14.9446 8.67389 15.0289C8.51133 14.113 8.41053 13.115 8.38354 12.0667H14.6162C14.5892 13.115 14.4885 14.113 14.3259 15.0289Z" fill="white"/>
</svg>
