<svg width="335" height="160" viewBox="0 0 335 160" fill="none" xmlns="http://www.w3.org/2000/svg">
<rect width="335" height="160" rx="16" fill="black" fill-opacity="0.1"/>
<g clip-path="url(#clip0_0_1116)">
<path d="M137.146 43.281H121.011V123.726H178.634V99.2656M-0.5 105.5C-0.5 105.5 46.3408 87.913 68.7213 86.7938C94.8943 85.4851 128.341 94.8238 113.605 92.36C93.0636 88.9255 85.671 75.5656 125.364 76.1354C150.205 76.4931 178.633 66.3929 178.633 66.3929V43.281H162.498V47.1903C162.498 47.946 161.885 48.5583 161.129 48.5583H138.514C137.757 48.5583 137.145 47.946 137.145 47.1903L137.143 46.4361" stroke="black" stroke-linecap="round" stroke-linejoin="round"/>
<path d="M137.145 46.4353C137.145 46.4353 137.115 45.5882 137.446 44.4222C137.777 43.2561 138.591 41.8984 139.748 41.6753C141.086 41.4178 162.499 41.6607 162.499 41.6607C162.499 40.905 161.886 40.2927 161.13 40.2927H152.752C152.755 40.2356 152.77 40.1815 152.77 40.1237C152.77 38.5495 151.45 37.2737 149.821 37.2737C148.193 37.2737 146.873 38.5495 146.873 40.1237C146.873 40.1815 146.888 40.2356 146.891 40.2927H138.514C137.757 40.2927 137.145 40.905 137.145 41.6607V43.2803" stroke="black" stroke-linejoin="round"/>
<path d="M334.5 60.5C334.5 60.5 300.055 93.409 287.001 96.9548C276.13 99.9072 259.778 93.3191 242.447 92.0389C229.615 91.0915 214.044 96.5985 214.044 96.5985V51.2861H200.753V96.5985H194.868V62.3659H181.576V96.5985H175.691V74.6578H162.4V96.5985H156.515V84.7828H143.224V96.5985C143.224 96.5985 143.009 100.296 137.145 99.4185C133.789 98.9167 134.534 98.1486 137.145 98.022C139.757 97.8955 142.343 101.125 152.924 99.2635C169.041 96.428 178.634 99.2561 178.634 99.2561" stroke="black" stroke-linecap="round" stroke-linejoin="round"/>
</g>
<defs>
<clipPath id="clip0_0_1116">
<rect width="335" height="87" fill="white" transform="translate(0 37)"/>
</clipPath>
</defs>
</svg>
