<svg width="764" height="160" viewBox="0 0 764 160" fill="none" xmlns="http://www.w3.org/2000/svg">
<rect width="764" height="160" rx="16" fill="black" fill-opacity="0.1"/>
<g clip-path="url(#clip0_304_1781)">
<path d="M351.146 43.2812H335.011V123.726H392.634V99.2659M351.143 46.4363L351.145 47.1905C351.145 47.9462 351.757 48.5585 352.514 48.5585H375.129C375.885 48.5585 376.498 47.9462 376.498 47.1905V43.2812H392.633V66.3932C392.633 66.3932 364.205 76.4934 339.364 76.1357C299.671 75.5658 307.064 88.9257 327.605 92.3603C342.341 94.824 308.894 85.4853 282.721 86.794C260.341 87.9133 241.357 102.653 213.5 105.5C173.931 109.545 152.264 91.4089 112.5 92.3603C88.9206 92.9244 76.0151 101.095 52.5 99.2659C28.004 97.3602 -8 82 -8 82" stroke="black" stroke-linecap="round" stroke-linejoin="round"/>
<path d="M351.145 46.4351C351.145 46.4351 351.115 45.588 351.446 44.4219C351.777 43.2559 352.591 41.8982 353.748 41.675C355.086 41.4175 376.499 41.6604 376.499 41.6604C376.499 40.9047 375.886 40.2925 375.13 40.2925H366.752C366.755 40.2354 366.77 40.1813 366.77 40.1235C366.77 38.5492 365.45 37.2734 363.821 37.2734C362.193 37.2734 360.873 38.5492 360.873 40.1235C360.873 40.1813 360.888 40.2354 360.891 40.2925H352.514C351.757 40.2925 351.145 40.9047 351.145 41.6604V43.28" stroke="black" stroke-linejoin="round"/>
<path d="M392.634 99.2561C392.634 99.2561 383.041 96.428 366.924 99.2635C356.343 101.125 353.757 97.8955 351.145 98.022C348.534 98.1486 347.789 98.9167 351.145 99.4185C357.009 100.296 357.224 96.5985 357.224 96.5985V84.7828H370.515V96.5985H376.4V74.6578H389.691V96.5985H395.576V62.3659H408.868V96.5985H414.753V51.2861H428.044V96.5985C428.044 96.5985 443.615 91.0915 456.447 92.0389C473.778 93.3191 490.13 99.9072 501.001 96.9548C514.055 93.409 526.801 69.213 548.5 60.5C587.974 44.6496 615.568 63.0823 656.5 74.6578C675.861 80.1329 685.468 87.2088 705 92.0389C729.988 98.2184 770.5 99.4185 770.5 99.4185" stroke="black" stroke-linecap="round" stroke-linejoin="round"/>
</g>
<defs>
<clipPath id="clip0_304_1781">
<rect width="764" height="87" fill="white" transform="translate(0 37)"/>
</clipPath>
</defs>
</svg>
