<svg width="335" height="160" viewBox="0 0 335 160" fill="none" xmlns="http://www.w3.org/2000/svg">
<rect width="335" height="160" rx="16" fill="black" fill-opacity="0.1"/>
<g clip-path="url(#clip0_0_1121)">
<path d="M-1.5 76.2256C11.0702 78.8316 44.6013 91.589 53.9502 91.7089C63.2991 91.8288 69.4287 89.4616 76.3627 86.9063C83.2966 84.3499 91.0368 81.6044 98.6571 81.7633C106.278 81.9213 113.781 84.9836 117.926 85.9352C122.072 86.8868 122.861 85.7275 123.064 84.385C123.268 83.0425 122.887 81.5157 123.193 79.48C123.499 77.4452 124.493 74.9006 124.749 72.3803C125.005 69.8591 124.523 67.3612 123.682 67.2754C122.842 67.1906 121.644 69.5178 120.933 72.5109C120.222 75.5041 120 79.1641 120.071 82.0724C120.142 84.9807 120.507 87.1393 120.9 89.0239C121.293 90.9085 121.714 92.5211 121.88 92.6098C122.045 92.6985 121.958 91.2634 122.041 90.5078C122.123 89.7512 122.378 89.6742 122.743 90.2309C123.107 90.7886 123.581 91.98 123.991 93.2552C124.399 94.5295 124.743 95.8866 125.589 97.3627C126.435 98.8388 127.782 100.433 128.567 101.844C129.352 103.254 129.572 104.482 128.965 105.161C128.357 105.841 126.921 105.972 125.88 104.701C124.839 103.431 124.193 100.759 124.448 100.704C124.702 100.647 125.857 103.206 127.817 106.332C129.778 109.459 132.546 113.155 137.525 116.846C142.504 120.538 149.695 124.223 155.655 125.875C161.615 127.528 166.344 127.147 168.634 126.554C170.924 125.961 170.777 125.157 170.012 124.631C169.246 124.106 167.862 123.858 166.595 123.193C165.328 122.528 164.177 121.444 163.344 120.265C162.511 119.084 161.997 117.807 162.049 116.629C162.101 115.451 162.719 114.372 162.392 113.183C162.066 111.995 160.793 110.698 159.849 109.767C158.904 108.836 158.287 108.273 157.801 107.523C157.316 106.773 156.961 105.836 156.462 105.591C155.962 105.347 155.319 105.793 154.461 105.581C153.603 105.368 152.531 104.498 151.19 104.21C149.849 103.922 148.241 104.217 146.6 104.152C144.959 104.088 143.285 103.665 142.104 102.096C140.924 100.527 140.237 97.8132 139.801 95.1476C139.366 92.4821 139.182 89.8653 139.844 87.9241C140.506 85.983 142.014 84.7165 143.41 83.6996C144.806 82.6827 146.09 81.9164 146.866 81.2417C147.642 80.5671 147.91 79.984 148.925 79.8212C149.94 79.6584 151.703 79.9148 153.32 80.1049C154.937 80.295 156.408 80.4179 157.427 80.9288C158.446 81.4397 159.012 82.3395 159.688 83.0737C160.363 83.8078 161.149 84.3762 162.135 84.5283C163.121 84.6804 164.307 84.4172 165.642 84.1569C166.976 83.8966 168.457 83.6411 170.102 83.5582C171.747 83.4754 173.557 83.5651 174.459 82.8728C175.362 82.1806 175.359 80.7055 175.211 79.9226C175.063 79.1397 174.77 79.0471 174.136 79.1777C173.5 79.3084 172.522 79.6613 171.528 79.8251C170.533 79.9889 169.523 79.9616 168.734 79.4985C167.946 79.0354 167.38 78.1355 167.749 77.9298C168.117 77.7231 169.421 78.2106 169.265 78.5645C169.108 78.9184 167.49 79.1387 165.839 78.4748C164.187 77.8099 162.501 76.2597 161.741 76.6926C160.982 77.1254 161.15 79.5414 161.732 79.8358C162.314 80.1303 163.31 78.3032 162.956 76.9558C162.602 75.6094 160.897 74.7426 159.824 74.7036C158.751 74.6646 158.309 75.4534 157.629 75.7098C156.948 75.9652 156.028 75.6884 155.275 75.701C154.521 75.7127 153.935 76.013 152.777 75.6035C151.62 75.194 149.892 74.0738 148.519 74.0797C147.144 74.0855 146.122 75.2174 146.283 76.481C146.444 77.7436 147.786 79.1378 149.144 79.2158C150.5 79.2938 151.871 78.0556 152.097 76.8661C152.323 75.6767 151.405 74.5359 151.369 73.8925C151.333 73.249 152.18 73.1027 152.281 72.4524C152.382 71.8022 151.739 70.6478 151.99 69.8746C152.242 69.1015 153.391 68.7105 152.813 68.2318C152.236 67.7531 149.934 67.1877 149.128 66.5968C148.322 66.007 149.012 65.3928 150.062 64.7259C151.112 64.058 152.521 63.3375 153.311 62.9573C154.1 62.578 154.269 62.54 154.483 63.1991C154.698 63.8582 154.957 65.2124 155.723 65.7389C156.488 66.2644 157.76 65.9612 158.513 65.3489C159.267 64.7366 159.502 63.8162 159.246 63.0928C158.992 62.3704 158.247 61.8449 158.332 61.0259C158.416 60.2069 159.33 59.0935 160.754 57.8036C162.179 56.5138 164.113 55.0484 165.875 54.5258C167.637 54.0032 169.227 54.4244 170.349 54.2012C171.471 53.9779 172.126 53.1102 172.189 52.3331C172.251 51.5551 171.722 50.8678 171.235 50.1385C170.749 49.4092 170.306 48.64 170.502 48.3923C170.698 48.1447 171.534 48.4196 172.246 48.5649C172.959 48.7102 173.548 48.7258 173.877 48.2285C174.206 47.7313 174.275 46.7222 173.915 45.9969C173.556 45.2715 172.767 44.8289 172.758 44.3443C172.749 43.8597 173.522 43.3323 173.96 42.6908C174.398 42.0492 174.502 41.2936 174.054 40.734C173.605 40.1744 172.603 39.8107 171.547 39.1302C170.49 38.4497 169.38 37.4513 168.141 36.5134C166.902 35.5755 165.535 34.6961 163.202 34.5089C160.868 34.3207 157.569 34.8238 153.664 35.9216C149.76 37.0194 145.25 38.7119 141.302 41.4311C137.354 44.1503 133.97 47.8941 131.658 50.9087C129.345 53.9233 128.106 56.2076 127.155 57.9099C126.205 59.6122 125.544 60.7324 126.149 60.9167C126.756 61.101 128.628 60.3502 129.76 59.7692C130.892 59.1881 131.282 58.7767 131.798 58.3906C132.314 58.0035 132.955 57.6418 133.45 58.0757C133.944 58.5095 134.29 59.7409 135.016 59.3811C135.742 59.0214 136.846 57.0705 137.712 55.3867C138.578 53.703 139.205 52.2873 139.359 51.2383C139.513 50.1892 139.194 49.5067 139.151 48.7258C139.108 47.9448 139.342 47.0664 140.224 46.3742C141.106 45.681 142.636 45.174 143.371 45.2559C144.106 45.3388 144.046 46.0105 144.007 46.7261C143.967 47.4408 143.947 48.1993 145.053 47.8064C146.158 47.4145 148.389 45.8721 149.657 45.7365C150.925 45.601 151.228 46.8733 150.359 47.862C149.491 48.8506 147.45 49.5545 146.047 50.8453C144.644 52.1352 143.879 54.011 144.641 54.6418C145.404 55.2726 147.695 54.6594 149.26 54.4264C150.824 54.1934 151.663 54.3425 152.085 55.1322C152.506 55.9229 152.511 57.3552 151.561 57.4361C150.612 57.516 148.707 56.2447 148.952 54.9031C149.198 53.5616 151.595 52.1498 153.525 50.8531C155.455 49.5555 156.919 48.3728 157.177 47.3257C157.437 46.2796 156.492 45.37 155.661 44.1054C154.831 42.8409 154.115 41.2215 154.565 40.1373C155.015 39.0542 156.63 38.5062 158.624 37.969C160.618 37.4318 162.991 36.9044 165.197 36.3301C167.403 35.7559 169.441 35.1358 171.76 35.0909C174.078 35.0471 176.676 35.5784 180.575 37.0711C184.475 38.5637 189.677 41.0177 193.203 43.0905C196.73 45.1633 198.581 46.8548 199.978 48.1973C201.375 49.5399 202.318 50.5343 202.216 51.2051C202.113 51.8769 200.967 52.2249 200.047 51.948C199.128 51.6711 198.436 50.7683 198.803 50.3774C199.172 49.9864 200.601 50.1083 202.077 50.8424C203.553 51.5766 205.077 52.922 206.089 54.4868C207.101 56.0507 207.602 57.8339 208.311 59.7058C209.02 61.5777 209.937 63.5403 210.405 64.9638C210.873 66.3872 210.892 67.2725 210.19 66.7489C209.487 66.2244 208.063 64.292 208.061 63.6173C208.058 62.9427 209.474 63.5277 210.573 65.0106C211.672 66.4925 212.452 68.8724 212.595 70.6244C212.738 72.3764 212.246 73.5005 211.249 73.7482C210.252 73.9958 208.752 73.367 207.703 73.2129C206.654 73.0589 206.055 73.3806 206.103 74.7924C206.15 76.2051 206.843 78.7088 207.06 80.842C207.278 82.9752 207.021 84.738 207.239 86.0707C207.456 87.4035 208.148 88.3063 208.391 87.891C208.634 87.4756 208.426 85.7431 207.213 84.6161C206 83.489 203.781 82.9674 201.698 82.0695C199.615 81.1725 197.668 79.8992 196.048 79.8358C194.428 79.7725 193.134 80.918 191.646 81.4055C190.158 81.893 188.478 81.7224 187.439 81.9691C186.401 82.2157 186.004 82.8787 186.656 82.9177C187.308 82.9557 189.009 82.3688 190.397 82.4478C191.786 82.5267 192.861 83.2706 193.242 84.0184C193.622 84.7652 193.308 85.516 192.483 86.4627C191.657 87.4103 190.321 88.5539 189.253 89.9374C188.184 91.3209 187.383 92.9423 186.235 93.3547C185.087 93.7671 183.591 92.9696 181.897 91.7031C180.204 90.4366 178.312 88.7021 177.339 88.8026C176.367 88.903 176.317 90.8402 177.347 92.5103C178.378 94.1805 180.49 95.5844 182.793 96.0875C185.097 96.5906 187.593 96.1928 189.402 95.5035C191.21 94.8142 192.331 93.8324 192.151 93.4902C191.971 93.148 190.488 93.4463 189.633 94.7303C188.778 96.0134 188.55 98.2831 187.85 100.876C187.15 103.47 185.978 106.388 185.437 108.522C184.896 110.656 184.987 112.007 185.246 113.341C185.507 114.675 185.935 115.992 186.609 116.79C187.283 117.587 188.203 117.864 189.069 116.959C189.936 116.056 190.749 113.97 190.481 112.952C190.213 111.935 188.864 111.983 187.35 112.638C185.837 113.294 184.161 114.555 182.989 115.873C181.817 117.191 181.15 118.563 180.531 119.643C179.912 120.722 179.344 121.507 178.211 122.151C177.078 122.796 175.38 123.299 173.978 123.725C172.577 124.152 171.472 124.502 170.801 125.158C170.132 125.814 169.895 126.777 170.894 127.245C171.892 127.714 174.126 127.688 177.925 126.588C181.725 125.487 187.09 123.311 191.892 120.151C196.693 116.992 200.931 112.848 204.229 108.385C207.527 103.921 209.886 99.1391 211.358 95.2178C212.83 91.2965 213.416 88.2361 213.554 86.176C213.693 84.1149 213.384 83.0542 213.2 82.0383C213.015 81.0224 212.957 80.0523 212.946 78.8716C212.935 77.6919 212.971 76.3026 212.924 75.7322C212.876 75.1619 212.742 75.4115 212.447 76.2256C212.152 77.0396 211.694 78.4173 211.465 79.907C211.236 81.3968 211.236 82.9976 211.725 84.4221C212.215 85.8465 213.193 87.0935 215.102 87.3967C217.011 87.6999 219.85 87.0584 223.177 86.2823C226.505 85.5062 230.32 84.5956 235.18 83.2385C240.039 81.8813 245.944 80.0776 252.93 81.1355C259.917 82.1933 267.987 86.1126 275.251 88.6212C282.515 91.1288 288.975 92.2257 295.615 91.2214C302.256 90.2163 333.178 80.063 340 76.9558" stroke="black" stroke-miterlimit="2.61"/>
</g>
<defs>
<clipPath id="clip0_0_1121">
<rect width="335" height="94" fill="white" transform="translate(0 34)"/>
</clipPath>
</defs>
</svg>
