<svg width="764" height="160" viewBox="0 0 764 160" fill="none" xmlns="http://www.w3.org/2000/svg">
<g clip-path="url(#clip0_304_1786)">
<rect width="764" height="160" rx="16" fill="black" fill-opacity="0.1"/>
<g clip-path="url(#clip1_304_1786)">
<path d="M770.5 57C770.5 57 735.378 78.3196 722 84.5288C696.545 96.3433 678.562 91.5415 650.5 91.7094C608.126 91.963 584.707 69.4616 543 76.9563C525.08 80.1764 505.256 90.2167 498.615 91.2219C491.975 92.2261 485.515 91.1293 478.251 88.6217C470.987 86.1131 462.917 82.1938 455.93 81.136C448.944 80.0781 443.039 81.8818 438.18 83.2389C433.32 84.5961 429.505 85.5067 426.177 86.2828C422.85 87.0588 420.011 87.7004 418.102 87.3972C416.193 87.0939 415.215 85.847 414.725 84.4225C414.236 82.9981 414.236 81.3972 414.465 79.9075C414.694 78.4178 415.151 77.0401 415.447 76.226C415.742 75.412 415.876 75.1624 415.924 75.7327C415.971 76.3031 415.935 77.6924 415.946 78.8721C415.957 80.0528 416.015 81.0229 416.2 82.0388C416.384 83.0547 416.693 84.1154 416.554 86.1765C416.416 88.2366 415.83 91.297 414.358 95.2183C412.886 99.1396 410.527 103.922 407.229 108.385C403.931 112.849 399.693 116.992 394.892 120.152C390.09 123.312 384.725 125.488 380.925 126.589C377.126 127.688 374.892 127.715 373.894 127.246C372.895 126.778 373.132 125.815 373.801 125.158C374.472 124.502 375.577 124.152 376.978 123.725C378.38 123.299 380.078 122.796 381.211 122.152C382.344 121.507 382.912 120.722 383.531 119.643C384.15 118.564 384.817 117.191 385.989 115.874C387.161 114.556 388.837 113.294 390.35 112.639C391.864 111.984 393.213 111.935 393.481 112.953C393.749 113.971 392.936 116.056 392.069 116.96C391.204 117.865 390.283 117.588 389.609 116.79C388.935 115.993 388.507 114.676 388.246 113.342C387.987 112.007 387.896 110.657 388.437 108.523C388.978 106.388 390.15 103.47 390.85 100.877C391.55 98.2836 391.778 96.0139 392.633 94.7308C393.488 93.4468 394.971 93.1485 395.151 93.4907C395.331 93.8329 394.21 94.8147 392.402 95.504C390.593 96.1933 388.097 96.5911 385.793 96.088C383.49 95.5849 381.378 94.1809 380.347 92.5108C379.317 90.8407 379.367 88.9035 380.339 88.8031C381.312 88.7026 383.204 90.4371 384.897 91.7036C386.591 92.97 388.087 93.7676 389.235 93.3551C390.383 92.9427 391.184 91.3214 392.253 89.9379C393.321 88.5544 394.657 87.4108 395.483 86.4631C396.308 85.5165 396.622 84.7657 396.242 84.0189C395.861 83.2711 394.786 82.5272 393.397 82.4483C392.009 82.3693 390.308 82.9562 389.656 82.9182C389.004 82.8792 389.401 82.2162 390.439 81.9695C391.478 81.7229 393.158 81.8935 394.646 81.406C396.134 80.9185 397.428 79.773 399.048 79.8363C400.668 79.8997 402.615 81.173 404.698 82.07C406.781 82.9679 409 83.4895 410.213 84.6166C411.426 85.7436 411.634 87.4761 411.391 87.8915C411.148 88.3068 410.456 87.404 410.239 86.0712C410.021 84.7384 410.278 82.9757 410.06 80.8425C409.843 78.7093 409.15 76.2056 409.103 74.7928C409.055 73.3811 409.654 73.0594 410.703 73.2134C411.752 73.3675 413.252 73.9963 414.249 73.7487C415.246 73.501 415.738 72.3769 415.595 70.6249C415.452 68.8729 414.672 66.493 413.573 65.0111C412.474 63.5281 411.058 62.9432 411.061 63.6178C411.063 64.2925 412.487 66.2249 413.19 66.7494C413.892 67.273 413.873 66.3877 413.405 64.9643C412.937 63.5408 412.02 61.5782 411.311 59.7063C410.602 57.8344 410.101 56.0512 409.089 54.4873C408.077 52.9225 406.553 51.5771 405.077 50.8429C403.601 50.1088 402.172 49.9869 401.803 50.3778C401.436 50.7688 402.128 51.6716 403.047 51.9485C403.967 52.2254 405.113 51.8773 405.216 51.2056C405.318 50.5348 404.375 49.5404 402.978 48.1978C401.581 46.8553 399.73 45.1638 396.203 43.091C392.677 41.0182 387.475 38.5642 383.575 37.0716C379.676 35.5789 377.078 35.0475 374.76 35.0914C372.441 35.1363 370.403 35.7563 368.197 36.3306C365.991 36.9048 363.618 37.4323 361.624 37.9695C359.63 38.5067 358.015 39.0546 357.565 40.1378C357.115 41.222 357.831 42.8414 358.661 44.1059C359.492 45.3704 360.437 46.2801 360.177 47.3262C359.919 48.3733 358.455 49.556 356.525 50.8536C354.595 52.1503 352.198 53.5621 351.953 54.9036C351.707 56.2452 353.612 57.5165 354.561 57.4366C355.511 57.3557 355.506 55.9234 355.085 55.1327C354.663 54.343 353.824 54.1938 352.26 54.4269C350.695 54.6599 348.404 55.2731 347.641 54.6423C346.879 54.0115 347.644 52.1357 349.047 50.8458C350.45 49.555 352.491 48.8511 353.359 47.8624C354.228 46.8738 353.925 45.6015 352.657 45.737C351.389 45.8725 349.158 47.4149 348.053 47.8069C346.947 48.1998 346.967 47.4413 347.007 46.7266C347.047 46.011 347.106 45.3392 346.371 45.2564C345.636 45.1745 344.106 45.6815 343.224 46.3747C342.342 47.0669 342.108 47.9453 342.151 48.7263C342.194 49.5072 342.513 50.1897 342.359 51.2387C342.205 52.2878 341.578 53.7034 340.712 55.3872C339.846 57.071 338.742 59.0219 338.016 59.3816C337.29 59.7414 336.944 58.51 336.45 58.0761C335.955 57.6423 335.314 58.004 334.798 58.3911C334.282 58.7771 333.892 59.1886 332.76 59.7697C331.628 60.3507 329.756 61.1015 329.149 60.9172C328.544 60.7329 329.205 59.6127 330.155 57.9104C331.106 56.2081 332.345 53.9238 334.658 50.9092C336.97 47.8946 340.354 44.1508 344.302 41.4316C348.25 38.7124 352.76 37.0199 356.664 35.9221C360.569 34.8243 363.868 34.3212 366.202 34.5094C368.535 34.6966 369.902 35.576 371.141 36.5139C372.38 37.4518 373.49 38.4502 374.547 39.1307C375.603 39.8112 376.605 40.1749 377.054 40.7345C377.502 41.2941 377.398 42.0497 376.96 42.6912C376.522 43.3328 375.749 43.8602 375.758 44.3448C375.767 44.8293 376.556 45.272 376.915 45.9973C377.275 46.7227 377.206 47.7318 376.877 48.229C376.548 48.7263 375.959 48.7107 375.246 48.5654C374.534 48.4201 373.698 48.1452 373.502 48.3928C373.306 48.6405 373.749 49.4097 374.235 50.139C374.722 50.8683 375.251 51.5556 375.189 52.3336C375.126 53.1107 374.471 53.9784 373.349 54.2016C372.227 54.4249 370.637 54.0037 368.875 54.5263C367.113 55.0489 365.179 56.5143 363.754 57.8041C362.33 59.094 361.416 60.2074 361.332 61.0264C361.247 61.8454 361.992 62.3709 362.246 63.0933C362.502 63.8167 362.267 64.7371 361.513 65.3494C360.76 65.9616 359.488 66.2649 358.723 65.7394C357.957 65.2129 357.698 63.8586 357.483 63.1996C357.269 62.5405 357.1 62.5785 356.311 62.9578C355.521 63.338 354.112 64.0585 353.062 64.7264C352.012 65.3932 351.322 66.0075 352.128 66.5973C352.934 67.1881 355.236 67.7536 355.813 68.2323C356.391 68.711 355.242 69.102 354.99 69.8751C354.739 70.6483 355.382 71.8026 355.281 72.4529C355.18 73.1032 354.333 73.2495 354.369 73.893C354.405 74.5364 355.323 75.6771 355.097 76.8666C354.871 78.056 353.5 79.2942 352.144 79.2163C350.786 79.1383 349.444 77.7441 349.283 76.4815C349.122 75.2179 350.144 74.086 351.519 74.0802C352.892 74.0743 354.62 75.1945 355.777 75.604C356.935 76.0135 357.521 75.7132 358.275 75.7015C359.028 75.6888 359.948 75.9657 360.629 75.7103C361.309 75.4539 361.751 74.6651 362.824 74.7041C363.897 74.7431 365.602 75.6099 365.956 76.9563C366.31 78.3037 365.314 80.1308 364.732 79.8363C364.15 79.5419 363.982 77.1259 364.741 76.6931C365.501 76.2602 367.187 77.8104 368.839 78.4753C370.49 79.1392 372.108 78.9189 372.265 78.565C372.421 78.2111 371.117 77.7236 370.749 77.9303C370.38 78.136 370.946 79.0359 371.734 79.499C372.523 79.9621 373.533 79.9894 374.528 79.8256C375.522 79.6618 376.5 79.3089 377.136 79.1782C377.77 79.0476 378.063 79.1402 378.211 79.9231C378.359 80.706 378.362 82.1811 377.459 82.8733C376.557 83.5656 374.747 83.4759 373.102 83.5587C371.457 83.6416 369.976 83.897 368.642 84.1574C367.307 84.4177 366.121 84.6809 365.135 84.5288C364.149 84.3767 363.363 83.8083 362.688 83.0742C362.012 82.34 361.446 81.4401 360.427 80.9293C359.408 80.4184 357.937 80.2955 356.32 80.1054C354.703 79.9153 352.94 79.6589 351.925 79.8217C350.91 79.9845 350.642 80.5675 349.866 81.2422C349.09 81.9169 347.806 82.6832 346.41 83.7001C345.014 84.717 343.506 85.9835 342.844 87.9246C342.182 89.8658 342.366 92.4826 342.802 95.1481C343.237 97.8137 343.924 100.528 345.104 102.097C346.285 103.665 347.959 104.089 349.6 104.153C351.241 104.217 352.849 103.923 354.19 104.21C355.531 104.498 356.603 105.369 357.461 105.581C358.319 105.794 358.962 105.347 359.462 105.592C359.961 105.837 360.316 106.774 360.801 107.523C361.287 108.273 361.904 108.837 362.849 109.768C363.793 110.699 365.066 111.995 365.392 113.184C365.719 114.372 365.101 115.452 365.049 116.629C364.997 117.807 365.511 119.084 366.344 120.265C367.177 121.445 368.328 122.529 369.595 123.194C370.862 123.859 372.246 124.106 373.012 124.632C373.777 125.157 373.924 125.962 371.634 126.555C369.344 127.147 364.615 127.529 358.655 125.876C352.695 124.223 345.504 120.538 340.525 116.847C335.546 113.156 332.778 109.46 330.817 106.333C328.857 103.206 327.702 100.648 327.448 100.704C327.193 100.76 327.839 103.431 328.88 104.702C329.921 105.972 331.357 105.841 331.965 105.162C332.572 104.482 332.352 103.255 331.567 101.844C330.782 100.433 329.435 98.8393 328.589 97.3632C327.743 95.8871 327.399 94.53 326.991 93.2557C326.581 91.9805 326.107 90.7891 325.743 90.2314C325.378 89.6747 325.123 89.7517 325.041 90.5083C324.958 91.2639 325.045 92.699 324.88 92.6103C324.714 92.5216 324.293 90.909 323.9 89.0244C323.507 87.1398 323.142 84.9812 323.071 82.0729C323 79.1646 323.222 75.5046 323.933 72.5114C324.644 69.5183 325.842 67.1911 326.682 67.2759C327.523 67.3617 328.004 69.8595 327.749 72.3808C327.493 74.9011 326.499 77.4457 326.193 79.4805C325.887 81.5162 326.268 83.043 326.064 84.3855C325.861 85.728 325.072 86.8873 320.926 85.9357C316.781 84.9841 309.278 81.9218 301.657 81.7638C294.037 81.6049 286.297 84.3504 279.363 86.9068C272.429 89.4621 266.299 91.8293 256.95 91.7094C247.601 91.5895 214.07 78.8321 201.5 76.226C188.93 73.62 156.113 81.1658 127 84.0189C100.654 86.6008 85.4396 95.513 59.5 90.2314C40.2505 86.3119 33.0043 67.5321 13.5 69.8751C-6.12236 72.2324 -26.5 100.877 -26.5 100.877" stroke="black" stroke-miterlimit="2.61"/>
</g>
</g>
<defs>
<clipPath id="clip0_304_1786">
<rect width="764" height="160" rx="16" fill="white"/>
</clipPath>
<clipPath id="clip1_304_1786">
<rect width="775" height="94" fill="white" transform="translate(-11 34)"/>
</clipPath>
</defs>
</svg>
