<svg width="335" height="160" viewBox="0 0 335 160" fill="none" xmlns="http://www.w3.org/2000/svg">
<rect width="335" height="160" rx="16" fill="black" fill-opacity="0.1"/>
<g clip-path="url(#clip0_0_1124)">
<path d="M0.279297 150.231C7.36313 146.876 13.029 149.666 20.4126 153.586C27.813 157.515 37.6712 150.601 39.3032 142.525C40.5384 136.413 31.7915 136.662 34.2941 143.13C36.3565 148.459 40.5023 148.835 46.221 148.437C50.0017 148.174 54.9822 146.146 57.8169 141.661C62.2426 134.659 66.0644 122.355 60.0982 108.954C58.6342 105.666 55.4275 100.826 55.8398 93.7035C56.1278 88.7367 58.7847 82.8619 62.0044 78.9978C72.8976 65.926 87.9665 66.663 99.0412 73.8233C101.781 75.5946 106.462 80.3605 108.512 85.2676C110.943 91.087 111.562 97.2983 110.594 101.569C109.3 107.281 117.273 115.02 116.142 117.636C115.244 119.711 110.928 119.592 110.225 118.64C109.523 117.688 114.082 116.87 113.63 117.742C113.178 118.615 110.583 118.829 110.429 120.472C110.275 122.114 111.535 123.303 111.459 124.144C111.403 124.772 110.882 124.796 110.326 124.92C109.771 125.043 106.571 125.088 106.703 124.226C106.827 123.419 109.084 124.996 110.275 126.451C110.887 127.2 110.851 129.258 108.344 129.745C105.837 130.233 109.878 134.617 105.577 137.14C101.276 139.663 90.7851 138.478 88.5212 134.498C87.9857 133.556 87.9596 133.098 88.1816 133.012C88.8975 132.731 92.1913 136.31 89.2725 139.96C87.4552 142.232 86.6921 145.746 86.6349 149.02C86.6212 149.792 85.98 150.416 85.2076 150.403C78.4956 150.291 51.3793 147.005 54.0629 150.008C56.7192 152.981 72.6812 130.091 63.8155 110.436C62.4025 107.303 59.355 102.674 59.7487 95.8722C60.0236 91.1293 62.3558 85.3372 65.6359 81.8289C69.9832 77.1787 79.3042 72.1454 88.066 73.6368C96.8278 75.1282 102.986 81.5272 102.485 88.4811C101.945 95.9779 95.9857 99.5161 90.42 99.7107C87.4098 99.8158 84.817 99.2368 83.9195 97.292C83.4556 96.2864 83.9755 94.8764 85.3158 94.7489C86.8868 94.5991 86.9421 96.708 85.7157 97.0016C83.9457 97.4257 82.7745 94.3808 83.8573 90.8469C84.5682 88.5284 85.9222 87.8131 87.4851 86.2838C89.0598 84.7433 88.2333 81.9452 85.0228 82.2991C83.0196 82.5198 82.1738 84.0772 80.9025 84.2264C79.6307 84.3763 80.0387 81.7916 82.3983 80.4861C84.7424 79.1894 89.1307 79.1396 90.5195 81.8699C92.213 85.1985 90.3982 87.708 88.0081 89.126C85.8015 90.4352 85.4277 92.7028 85.6286 93.3521C85.7132 93.6245 85.0931 93.4845 84.7169 93.5393C83.2354 93.7551 82.6514 94.716 82.4356 95.8958C82.1899 97.2354 82.6775 98.131 83.1104 98.6354C83.3455 98.9091 83.1894 99.2642 82.8703 99.4315C82.3684 99.6946 80.6867 100.046 78.8775 100.042C71.1301 100.022 65.8928 95.7322 66.4326 88.825C66.8717 83.2083 71.6164 77.3945 83.4413 75.0616C109.219 69.9748 124.49 82.4023 125.534 87.226C127.168 94.7626 120.604 94.6756 120.664 88.5433C120.711 83.8029 127.021 81.8817 133.341 85.7054C139.265 89.289 145.829 92.2332 154.716 90.1143C168.618 86.8 174.859 74.0018 169.858 72.5558C162.006 70.2851 166.62 86.9443 178.83 82.1958C191.38 77.3155 183.941 46.8923 204.394 61.8225C218.818 72.3512 226.622 39.2506 237.41 57.7874C243.119 67.5965 230.403 72.6653 232.423 64.1989C234.863 53.9737 255.754 65.5815 268.41 51.0767C269.561 49.7576 271.208 46.35 272.558 43.2926C274.213 39.5448 277.05 36.442 280.637 34.4617L300.694 23.3907C300.881 23.2874 301.082 23.4995 300.97 23.6811L287.354 45.6982C287.153 46.0235 286.722 46.1161 286.405 45.9022L277.708 40.043C277.457 39.8738 277.125 39.8931 276.895 40.089L270.735 45.3456C270.298 45.7187 269.624 45.4078 269.624 44.8331V35.1116C269.624 34.8336 269.795 34.5842 270.054 34.4835L297.917 23.6792C298.147 23.5897 298.056 23.2451 297.812 23.2812L261.35 28.7138C260.696 28.8114 260.559 29.6946 261.153 29.985L268.603 33.6289" stroke="black" stroke-linecap="round" stroke-linejoin="round"/>
</g>
<defs>
<clipPath id="clip0_0_1124">
<rect width="301.283" height="132" fill="white" transform="translate(0 23)"/>
</clipPath>
</defs>
</svg>
