<svg width="764" height="160" viewBox="0 0 764 160" fill="none" xmlns="http://www.w3.org/2000/svg">
<rect width="764" height="160" rx="16" fill="black" fill-opacity="0.1"/>
<g clip-path="url(#clip0_304_1789)">
<path d="M63 155.953C70.0838 152.597 75.7497 155.388 83.1333 159.308C90.5337 163.237 100.392 156.322 102.024 148.247C103.259 142.134 94.5122 142.384 97.0148 148.851C99.0772 154.18 103.223 154.556 108.942 154.159C112.722 153.896 117.703 151.867 120.538 147.382C124.963 140.381 128.785 128.077 122.819 114.675C121.355 111.388 118.148 106.547 118.561 99.4249C118.848 94.4581 121.505 88.5833 124.725 84.7193C135.618 71.6474 150.687 72.3844 161.762 79.5448C164.502 81.316 169.183 86.0819 171.233 90.989C173.664 96.8084 174.283 103.02 173.315 107.291C172.021 113.002 179.993 120.741 178.863 123.357C177.965 125.432 173.649 125.314 172.946 124.361C172.243 123.409 176.803 122.591 176.351 123.464C175.899 124.336 173.304 124.55 173.15 126.193C172.995 127.835 174.256 129.024 174.18 129.865C174.124 130.493 173.602 130.517 173.047 130.641C172.492 130.765 169.292 130.809 169.424 129.948C169.547 129.14 171.805 130.718 172.995 132.173C173.608 132.922 173.572 134.979 171.065 135.467C168.557 135.955 172.599 140.339 168.298 142.861C163.997 145.384 153.506 144.199 151.242 140.219C150.706 139.278 150.68 138.819 150.902 138.733C151.618 138.453 154.912 142.031 151.993 145.681C150.176 147.954 149.413 151.467 149.356 154.741C149.342 155.513 148.701 156.137 147.928 156.124C141.216 156.012 114.1 152.726 116.784 155.729C119.44 158.702 135.402 135.812 126.536 116.157C125.123 113.025 122.076 108.395 122.469 101.594C122.744 96.8507 125.077 91.0586 128.357 87.5503C132.704 82.9001 142.025 77.8668 150.787 79.3582C159.548 80.8496 165.706 87.2487 165.206 94.2025C164.666 101.699 158.706 105.238 153.141 105.432C150.131 105.537 147.538 104.958 146.64 103.013C146.176 102.008 146.696 100.598 148.036 100.47C149.607 100.32 149.663 102.429 148.436 102.723C146.666 103.147 145.495 100.102 146.578 96.5684C147.289 94.2498 148.643 93.5346 150.206 92.0052C151.781 90.4647 150.954 87.6666 147.744 88.0205C145.74 88.2413 144.894 89.7986 143.623 89.9479C142.351 90.0978 142.759 87.513 145.119 86.2076C147.463 84.9108 151.851 84.8611 153.24 87.5914C154.934 90.92 153.119 93.4295 150.729 94.8475C148.522 96.1566 148.148 98.4242 148.349 99.0735C148.434 99.3459 147.814 99.206 147.438 99.2607C145.956 99.4765 145.372 100.437 145.156 101.617C144.911 102.957 145.398 103.852 145.831 104.357C146.066 104.631 145.91 104.986 145.591 105.153C145.089 105.416 143.407 105.767 141.598 105.763C133.851 105.743 128.613 101.454 129.153 94.5465C129.592 88.9298 134.337 83.1159 146.162 80.783C171.94 75.6962 187.21 88.1237 188.255 92.9475C189.888 100.484 183.324 100.397 183.385 94.2647C183.431 89.5243 189.742 87.6032 196.062 91.4268C201.986 95.0104 208.549 97.9547 217.437 95.8357C231.339 92.5214 237.58 79.7233 232.579 78.2773C224.727 76.0066 227.79 97.6959 240 92.9475C253 89.9479 259 87.5914 265.564 72.5741C279.988 83.1029 289.343 44.9721 300.131 63.5088C305.84 73.318 293.123 78.3867 295.143 69.9203C297.584 59.6951 318.475 71.3029 331.131 56.7981C332.282 55.479 333.928 52.0714 335.279 49.014C336.934 45.2662 339.771 42.1634 343.358 40.1832L363.415 29.1121C363.602 29.0089 363.803 29.2209 363.691 29.4025L350.075 51.4196C349.874 51.7449 349.443 51.8376 349.126 51.6236L340.429 45.7644C340.178 45.5952 339.845 45.6145 339.615 45.8104L333.456 51.067C333.018 51.4402 332.345 51.1292 332.345 50.5545V40.8331C332.345 40.5551 332.516 40.3057 332.775 40.2049L360.638 29.4007C360.868 29.3111 360.777 28.9666 360.533 29.0026L324.071 34.4352C323.417 34.5329 323.28 35.416 323.874 35.7065L331.324 39.3504" stroke="black" stroke-linecap="round" stroke-linejoin="round"/>
</g>
<g clip-path="url(#clip1_304_1789)">
<path d="M372 155.953C379.084 152.597 384.75 155.388 392.133 159.308C399.534 163.237 409.392 156.322 411.024 148.247C412.259 142.134 403.512 142.384 406.015 148.851C408.077 154.18 412.223 154.556 417.942 154.159C421.722 153.896 426.703 151.867 429.538 147.382C433.963 140.381 437.785 128.077 431.819 114.675C430.355 111.388 427.148 106.547 427.561 99.4249C427.848 94.4581 430.505 88.5833 433.725 84.7193C444.618 71.6474 459.687 72.3844 470.762 79.5448C473.502 81.316 478.183 86.0819 480.233 90.989C482.664 96.8084 483.283 103.02 482.315 107.291C481.021 113.002 488.993 120.741 487.863 123.357C486.965 125.432 482.649 125.314 481.946 124.361C481.243 123.409 485.803 122.591 485.351 123.464C484.899 124.336 482.304 124.55 482.15 126.193C481.995 127.835 483.256 129.024 483.18 129.865C483.124 130.493 482.602 130.517 482.047 130.641C481.492 130.765 478.292 130.809 478.424 129.948C478.547 129.14 480.805 130.718 481.995 132.173C482.608 132.922 482.572 134.979 480.065 135.467C477.557 135.955 481.599 140.339 477.298 142.861C472.997 145.384 462.506 144.199 460.242 140.219C459.706 139.278 459.68 138.819 459.902 138.733C460.618 138.453 463.912 142.031 460.993 145.681C459.176 147.954 458.413 151.467 458.356 154.741C458.342 155.513 457.701 156.137 456.928 156.124C450.216 156.012 423.1 152.726 425.784 155.729C428.44 158.702 444.402 135.812 435.536 116.157C434.123 113.025 431.076 108.395 431.469 101.594C431.744 96.8507 434.077 91.0586 437.357 87.5503C441.704 82.9001 451.025 77.8668 459.787 79.3582C468.548 80.8496 474.706 87.2487 474.206 94.2025C473.666 101.699 467.706 105.238 462.141 105.432C459.131 105.537 456.538 104.958 455.64 103.013C455.176 102.008 455.696 100.598 457.036 100.47C458.607 100.32 458.663 102.429 457.436 102.723C455.666 103.147 454.495 100.102 455.578 96.5684C456.289 94.2498 457.643 93.5346 459.206 92.0052C460.781 90.4647 459.954 87.6666 456.744 88.0205C454.74 88.2413 453.894 89.7986 452.623 89.9479C451.351 90.0978 451.759 87.513 454.119 86.2076C456.463 84.9108 460.851 84.8611 462.24 87.5914C463.934 90.92 462.119 93.4295 459.729 94.8475C457.522 96.1566 457.148 98.4242 457.349 99.0735C457.434 99.3459 456.814 99.206 456.438 99.2607C454.956 99.4765 454.372 100.437 454.156 101.617C453.911 102.957 454.398 103.852 454.831 104.357C455.066 104.631 454.91 104.986 454.591 105.153C454.089 105.416 452.407 105.767 450.598 105.763C442.851 105.743 437.613 101.454 438.153 94.5465C438.592 88.9298 443.337 83.1159 455.162 80.783C480.94 75.6962 496.21 88.1237 497.255 92.9475C498.888 100.484 492.324 100.397 492.385 94.2647C492.431 89.5243 498.742 87.6032 505.062 91.4268C510.986 95.0104 517.549 97.9547 526.437 95.8357C540.339 92.5214 546.58 79.7233 541.579 78.2773C533.727 76.0066 538.341 92.6657 550.551 87.9173C563.101 83.0369 555.662 52.6138 576.115 67.5439C590.539 78.0726 598.343 44.9721 609.131 63.5088C614.84 73.318 602.123 78.3867 604.143 69.9203C606.584 59.6951 627.475 71.3029 640.131 56.7981C641.282 55.479 642.928 52.0714 644.279 49.014C645.934 45.2662 648.771 42.1634 652.358 40.1832L672.415 29.1121C672.602 29.0089 672.803 29.2209 672.691 29.4025L659.075 51.4196C658.874 51.7449 658.443 51.8376 658.126 51.6236L649.429 45.7644C649.178 45.5952 648.845 45.6145 648.615 45.8104L642.456 51.067C642.018 51.4402 641.345 51.1292 641.345 50.5545V40.8331C641.345 40.5551 641.516 40.3057 641.775 40.2049L669.638 29.4007C669.868 29.3111 669.777 28.9666 669.533 29.0026L633.071 34.4352C632.417 34.5329 632.28 35.416 632.874 35.7065L640.324 39.3504" stroke="black" stroke-linecap="round" stroke-linejoin="round"/>
</g>
<path d="M248.5 90.4999C248.5 90.4999 254.035 88.1683 257.5 86.4999C271.75 79.6394 275.876 66.9505 291.5 64.4999C317.395 60.4382 347 109 335 112C329.425 113.394 329.5 102.746 329.5 97.0003C329.5 75.0003 332.848 78.2323 340 69.0001C355.023 49.6067 377.233 47.9217 401 53.9999C419.429 58.7128 421.915 78.4487 440.5 82.4999C450.421 84.6623 456.412 81.3468 466.5 82.4999C481.663 84.2329 488.779 92.387 504 93.4999C517.527 94.4889 525.044 91.2061 538.5 89.4999C542.993 88.9301 550 87.9999 550 87.9999" stroke="black"/>
<defs>
<clipPath id="clip0_304_1789">
<rect width="186" height="131" fill="white" transform="translate(63 29)"/>
</clipPath>
<clipPath id="clip1_304_1789">
<rect width="186" height="131" fill="white" transform="translate(549 29)"/>
</clipPath>
</defs>
</svg>
